<svg width="40" height="40" viewBox="0 0 40 40" fill="none" xmlns="http://www.w3.org/2000/svg">
<rect width="40" height="40" rx="20" fill="white"/>
<path d="M13.0196 32.9664C12.6732 32.6107 12.5 32.1895 12.5 31.7028C12.5 31.2162 12.6732 30.7955 13.0196 30.4407L23.1697 20.0178L12.985 9.55929C12.6617 9.22727 12.5 8.81225 12.5 8.31423C12.5 7.81621 12.6732 7.38933 13.0196 7.0336C13.366 6.67787 13.7762 6.5 14.2501 6.5C14.724 6.5 15.1337 6.67787 15.4792 7.0336L27.1189 19.0217C27.2575 19.164 27.3559 19.3182 27.4141 19.4842C27.4723 19.6502 27.5009 19.8281 27.5 20.0178C27.5 20.2075 27.4709 20.3854 27.4127 20.5514C27.3545 20.7174 27.2566 20.8715 27.1189 21.0138L15.4446 33.002C15.1212 33.334 14.7226 33.5 14.2487 33.5C13.7748 33.5 13.3651 33.3221 13.0196 32.9664Z" fill="#2CA54E"/>
</svg>
