<svg width="40" height="40" viewBox="0 0 40 40" fill="none" xmlns="http://www.w3.org/2000/svg">
<rect width="40" height="40" rx="20" fill="white"/>
<path d="M26.9804 32.9664C27.3268 32.6107 27.5 32.1895 27.5 31.7028C27.5 31.2162 27.3268 30.7955 26.9804 30.4407L16.8303 20.0178L27.015 9.55929C27.3383 9.22727 27.5 8.81225 27.5 8.31423C27.5 7.81621 27.3268 7.38933 26.9804 7.0336C26.634 6.67787 26.2238 6.5 25.7499 6.5C25.276 6.5 24.8663 6.67787 24.5208 7.0336L12.8811 19.0217C12.7425 19.164 12.6441 19.3182 12.5859 19.4842C12.5277 19.6502 12.4991 19.8281 12.5 20.0178C12.5 20.2075 12.5291 20.3854 12.5873 20.5514C12.6455 20.7174 12.7434 20.8715 12.8811 21.0138L24.5554 33.002C24.8788 33.334 25.2774 33.5 25.7513 33.5C26.2252 33.5 26.6349 33.3221 26.9804 32.9664Z" fill="#2CA54E"/>
</svg>
