<svg width="75" height="73" viewBox="0 0 75 73" fill="none" xmlns="http://www.w3.org/2000/svg">
<path id="Spiral 1" d="M28.1154 56.4205C27.3836 57.2934 25.467 56.2555 25.943 54.2481C26.2122 52.3235 29.3678 50.3849 32.4948 52.0412C35.6179 53.4231 37.5111 58.6586 34.6328 62.9379C32.0842 67.2716 24.7467 69.2187 19.3561 65.1798C13.8578 61.5417 11.9636 52.1142 17.2531 45.5582C22.0715 38.8201 33.6146 36.8606 41.2541 43.2819C49.1449 49.1791 51.0103 62.7927 43.3227 71.6278C36.2268 80.7655 20.4954 82.7529 10.5971 73.9388C0.315593 65.7843 -1.52642 47.9761 8.56333 36.8684C17.94 25.3234 37.852 23.3237 50.0132 34.5228C62.6693 44.9322 64.5141 66.9337 52.0125 80.3176C40.3648 94.2662 16.2513 96.2828 1.83811 82.6978C-13.2105 70.0299 -15.0271 43.8406 -0.126529 28.1786C13.8002 11.8324 42.099 9.78833 58.7723 25.7637C76.2076 40.6852 78.0063 71.0748 60.7024 89.0075C44.4989 107.765 12.0099 109.813 -6.92119 91.4571C-26.7362 74.2783 -28.5305 39.6993 -8.81639 19.4887C9.66345 -1.66705 46.3444 -3.74034 67.5314 17.0046" stroke="#4F4F4F" stroke-width="3" stroke-linecap="round"/>
</svg>
