<svg width="69" height="71" viewBox="0 0 69 71" fill="none" xmlns="http://www.w3.org/2000/svg">
<path id="Spiral 2" d="M53.1154 21.4205C52.3836 22.2934 50.467 21.2555 50.943 19.2481C51.2122 17.3235 54.3678 15.3849 57.4948 17.0412C60.6179 18.4231 62.5111 23.6586 59.6328 27.9379C57.0842 32.2716 49.7467 34.2187 44.3561 30.1798C38.8578 26.5417 36.9636 17.1142 42.2531 10.5582C47.0715 3.82011 58.6146 1.86064 66.2541 8.28187C74.1449 14.1791 76.0103 27.7927 68.3227 36.6278C61.2268 45.7655 45.4954 47.7529 35.5971 38.9388C25.3156 30.7843 23.4736 12.9761 33.5633 1.86842C42.94 -9.67656 62.852 -11.6763 75.0132 -0.477198C87.6693 9.93219 89.5141 31.9337 77.0125 45.3176C65.3648 59.2662 41.2513 61.2828 26.8381 47.6978C11.7895 35.0299 9.97286 8.84056 24.8735 -6.82144C38.8002 -23.1676 67.099 -25.2117 83.7723 -9.23632C101.208 5.68524 103.006 36.0748 85.7024 54.0075C69.4989 72.7655 37.0099 74.8125 18.0788 56.4571C-1.73615 39.2783 -3.53049 4.69934 16.1836 -15.5113C34.6634 -36.667 71.3444 -38.7403 92.5314 -17.9954" stroke="#4F4F4F" stroke-width="3" stroke-linecap="round"/>
</svg>
