<svg width="148" height="148" viewBox="0 0 148 148" fill="none" xmlns="http://www.w3.org/2000/svg">
<path d="M24 0L24.024 123.878L71.453 9.4389L24.069 123.897L111.681 36.3188L24.103 123.931L138.561 76.547L24.122 123.976L148 124L24.122 124.024L138.561 171.453L24.103 124.069L111.681 211.681L24.069 124.103L71.453 238.561L24.024 124.122L24 248L23.976 124.122L-23.453 238.561L23.931 124.103L-63.6812 211.681L23.897 124.069L-90.5611 171.453L23.878 124.024L-100 124L23.878 123.976L-90.5611 76.547L23.897 123.931L-63.6812 36.3188L23.931 123.897L-23.453 9.4389L23.976 123.878L24 0Z" fill="#F0C3D2" stroke="#4F4F4F" stroke-width="4"/>
</svg>
