<svg width="99" height="93" viewBox="0 0 99 93" fill="none" xmlns="http://www.w3.org/2000/svg">
<g id="ghost">
<path id="Union" fill-rule="evenodd" clip-rule="evenodd" d="M73.0247 27.3616C87.1873 42.473 86.5693 66.0625 71.6444 80.0502L18.4076 129.944C15.9887 132.211 12.7682 133.425 9.45472 133.317C6.14131 133.21 3.00618 131.791 0.739172 129.372C-1.52784 126.953 -2.74113 123.732 -2.63366 120.419C-2.52634 117.105 -1.10704 113.97 1.31185 111.703C-1.10704 113.97 -4.32751 115.184 -7.64099 115.076C-10.9544 114.969 -14.0895 113.549 -16.3565 111.131C-18.6236 108.712 -19.8368 105.491 -19.7294 102.178C-19.6221 98.8651 -18.2034 95.7306 -15.7855 93.4637C-18.2042 95.7298 -21.424 96.9425 -24.7367 96.8352C-28.0501 96.7277 -31.1853 95.3084 -33.4523 92.8895C-35.7193 90.4707 -36.9326 87.2502 -36.8251 83.9367C-36.7178 80.6233 -35.2985 77.4882 -32.8796 75.2212L20.3573 25.327C35.2821 11.3393 58.8621 12.2502 73.0247 27.3616Z" fill="#E6A544"/>
<circle id="Ellipse 6" cx="40.5131" cy="37.2736" r="7.5" transform="rotate(46.8564 40.5131 37.2736)" fill="white" fill-opacity="0.7"/>
<circle id="Ellipse 8" cx="61.028" cy="59.163" r="7.5" transform="rotate(46.8564 61.028 59.163)" fill="white" fill-opacity="0.7"/>
</g>
</svg>
