<svg width="58" height="123" viewBox="0 0 58 123" fill="none" xmlns="http://www.w3.org/2000/svg">
<g id="ghost">
<path id="Union" fill-rule="evenodd" clip-rule="evenodd" d="M37.5 0C58.2107 0 75 16.582 75 37.0371V110C75 113.315 73.683 116.495 71.3388 118.839C68.9946 121.183 65.8152 122.5 62.5 122.5C59.1848 122.5 56.0053 121.183 53.6612 118.839C51.317 116.495 50 113.315 50 110C50 113.315 48.683 116.495 46.3388 118.839C43.9946 121.183 40.8152 122.5 37.5 122.5C34.1848 122.5 31.0053 121.183 28.6612 118.839C26.317 116.495 25 113.315 25 110C25 113.315 23.683 116.495 21.3388 118.839C18.9946 121.183 15.8152 122.5 12.5 122.5C9.18483 122.5 6.00534 121.183 3.66122 118.839C1.31699 116.495 0 113.315 0 110V37.0371C0 16.582 16.7893 0 37.5 0Z" fill="#E6A544"/>
<circle id="Ellipse 6" cx="22.5" cy="30.5" r="7.5" fill="white" fill-opacity="0.7"/>
<circle id="Ellipse 8" cx="52.5" cy="30.5" r="7.5" fill="white" fill-opacity="0.7"/>
</g>
</svg>
