<svg xmlns="http://www.w3.org/2000/svg" viewBox="0 0 3854.52 1633.94"><defs><style>.cls-1{fill:none;stroke:#000;stroke-miterlimit:10;stroke-width:8px;}</style></defs><g id="Слой_2" data-name="Слой 2"><g id="Слой_1-2" data-name="Слой 1"><rect x="1960.76" y="150.63" width="120" height="10"/><circle class="cls-1" cx="1937.26" cy="155.63" r="23"/><rect x="2070.76" y="150.63" width="10" height="120"/><rect x="2270.91" y="122.63" width="361.16" height="10"/><circle class="cls-1" cx="2244.7" cy="127.63" r="23"/><rect x="2428.66" y="232.63" width="120" height="10"/><circle class="cls-1" cx="2405.16" cy="237.63" r="23"/><rect x="2538.66" y="122.63" width="10" height="120"/><rect x="2331.49" y="40.63" width="120" height="10"/><circle class="cls-1" cx="2307.99" cy="45.63" r="23"/><rect x="2441.49" y="40.63" width="10" height="92"/><rect x="2361.29" y="342.63" width="120" height="10"/><circle class="cls-1" cx="2337.79" cy="347.63" r="23"/><rect x="2471.29" y="232.63" width="10" height="120"/><rect x="1953.63" y="342.63" width="361.16" height="10"/><circle class="cls-1" cx="1927.43" cy="347.63" r="23"/><rect x="2111.38" y="452.63" width="120" height="10"/><circle class="cls-1" cx="2087.88" cy="457.63" r="23"/><rect x="2221.38" y="342.63" width="10" height="120"/><rect x="2014.21" y="260.63" width="120" height="10"/><circle class="cls-1" cx="1990.71" cy="265.63" r="23"/><rect x="2124.21" y="260.63" width="10" height="92"/><rect x="2044.01" y="562.63" width="120" height="10"/><circle class="cls-1" cx="2020.51" cy="567.63" r="23"/><rect x="2154.01" y="452.63" width="10" height="120"/><rect x="2762.98" y="1008.12" width="361.16" height="10"/><circle class="cls-1" cx="2736.78" cy="1013.12" r="23"/><rect x="2920.73" y="1118.12" width="120" height="10"/><circle class="cls-1" cx="2897.23" cy="1123.12" r="23"/><rect x="3030.73" y="1008.12" width="10" height="120"/><rect x="2823.56" y="926.12" width="120" height="10"/><circle class="cls-1" cx="2800.06" cy="931.12" r="23"/><rect x="2933.56" y="926.12" width="10" height="92"/><rect x="2853.36" y="1228.12" width="120" height="10"/><circle class="cls-1" cx="2829.86" cy="1233.12" r="23"/><rect x="2963.36" y="1118.12" width="10" height="120"/><rect x="2445.7" y="1228.12" width="361.16" height="10"/><circle class="cls-1" cx="2419.5" cy="1233.12" r="23"/><rect x="2603.45" y="1338.12" width="120" height="10"/><circle class="cls-1" cx="2579.95" cy="1343.12" r="23"/><rect x="2713.45" y="1228.12" width="10" height="120"/><rect x="2506.28" y="1146.12" width="120" height="10"/><circle class="cls-1" cx="2482.78" cy="1151.12" r="23"/><rect x="2616.28" y="1146.12" width="10" height="92"/><rect x="2536.09" y="1448.12" width="120" height="10"/><circle class="cls-1" cx="2512.59" cy="1453.12" r="23"/><rect x="2646.09" y="1338.12" width="10" height="120"/><rect x="880.4" y="1272.78" width="10" height="361.16"/><circle class="cls-1" cx="885.4" cy="1246.58" r="23"/><rect x="990.4" y="1430.53" width="10" height="120"/><circle class="cls-1" cx="995.4" cy="1407.03" r="23"/><rect x="880.4" y="1540.53" width="120" height="10"/><rect x="798.4" y="1333.36" width="10" height="120"/><circle class="cls-1" cx="803.4" cy="1309.86" r="23"/><rect x="798.4" y="1443.36" width="92" height="10"/><rect x="1100.4" y="1363.16" width="10" height="120"/><circle class="cls-1" cx="1105.4" cy="1339.66" r="23"/><rect x="990.4" y="1473.16" width="120" height="10"/><rect x="1100.4" y="955.5" width="10" height="361.16"/><circle class="cls-1" cx="1105.4" cy="929.3" r="23"/><rect x="1210.4" y="1113.25" width="10" height="120"/><circle class="cls-1" cx="1215.4" cy="1089.75" r="23"/><rect x="1100.4" y="1223.25" width="120" height="10"/><rect x="1018.4" y="1016.08" width="10" height="120"/><circle class="cls-1" cx="1023.4" cy="992.58" r="23"/><rect x="1018.4" y="1126.08" width="92" height="10"/><rect x="1320.4" y="1045.89" width="10" height="120"/><circle class="cls-1" cx="1325.4" cy="1022.39" r="23"/><rect x="1210.4" y="1155.89" width="120" height="10"/><rect x="2101.43" y="1272.24" width="10" height="361.16"/><circle class="cls-1" cx="2106.43" cy="1246.04" r="23"/><rect x="1991.43" y="1429.99" width="10" height="120"/><circle class="cls-1" cx="1996.43" cy="1406.49" r="23"/><rect x="1991.43" y="1539.99" width="120" height="10"/><rect x="2183.43" y="1332.82" width="10" height="120"/><circle class="cls-1" cx="2188.43" cy="1309.32" r="23"/><rect x="2101.43" y="1442.82" width="92" height="10"/><rect x="1881.43" y="1362.62" width="10" height="120"/><circle class="cls-1" cx="1886.43" cy="1339.12" r="23"/><rect x="1881.43" y="1472.62" width="120" height="10"/><rect x="1881.43" y="954.96" width="10" height="361.16"/><circle class="cls-1" cx="1886.43" cy="928.76" r="23"/><rect x="1771.43" y="1112.71" width="10" height="120"/><circle class="cls-1" cx="1776.43" cy="1089.21" r="23"/><rect x="1771.43" y="1222.71" width="120" height="10"/><rect x="1963.43" y="1015.54" width="10" height="120"/><circle class="cls-1" cx="1968.43" cy="992.04" r="23"/><rect x="1881.43" y="1125.54" width="92" height="10"/><rect x="1661.43" y="1045.34" width="10" height="120"/><circle class="cls-1" cx="1666.43" cy="1021.84" r="23"/><rect x="1661.43" y="1155.34" width="120" height="10"/><rect x="1137.65" y="434" width="120" height="10"/><circle class="cls-1" cx="1281.15" cy="439" r="23"/><rect x="1137.65" y="324" width="10" height="120"/><rect x="586.35" y="462" width="361.16" height="10"/><circle class="cls-1" cx="973.71" cy="467" r="23"/><rect x="669.76" y="352" width="120" height="10"/><circle class="cls-1" cx="813.26" cy="357" r="23"/><rect x="669.76" y="352" width="10" height="120"/><rect x="766.93" y="544" width="120" height="10"/><circle class="cls-1" cx="910.43" cy="549" r="23"/><rect x="766.93" y="462" width="10" height="92"/><rect x="737.12" y="242" width="120" height="10"/><circle class="cls-1" cx="880.62" cy="247" r="23"/><rect x="737.12" y="242" width="10" height="120"/><rect x="903.62" y="242" width="361.16" height="10"/><circle class="cls-1" cx="1290.98" cy="247" r="23"/><rect x="987.03" y="132" width="120" height="10"/><circle class="cls-1" cx="1130.53" cy="137" r="23"/><rect x="987.03" y="132" width="10" height="120"/><rect x="1084.2" y="324" width="120" height="10"/><circle class="cls-1" cx="1227.7" cy="329" r="23"/><rect x="1084.2" y="242" width="10" height="92"/><rect x="1054.4" y="22" width="120" height="10"/><circle class="cls-1" cx="1197.9" cy="27" r="23"/><rect x="1054.4" y="22" width="10" height="120"/><rect y="1140.75" width="361.16" height="10"/><circle class="cls-1" cx="387.36" cy="1145.75" r="23"/><rect x="83.41" y="1030.75" width="120" height="10"/><circle class="cls-1" cx="226.91" cy="1035.75" r="23"/><rect x="83.41" y="1030.75" width="10" height="120"/><rect x="180.58" y="1222.75" width="120" height="10"/><circle class="cls-1" cx="324.08" cy="1227.75" r="23"/><rect x="180.58" y="1140.75" width="10" height="92"/><rect x="150.78" y="920.75" width="120" height="10"/><circle class="cls-1" cx="294.28" cy="925.75" r="23"/><rect x="150.78" y="920.75" width="10" height="120"/><rect x="317.28" y="920.75" width="361.16" height="10"/><circle class="cls-1" cx="704.64" cy="925.75" r="23"/><rect x="400.69" y="810.75" width="120" height="10"/><circle class="cls-1" cx="544.19" cy="815.75" r="23"/><rect x="400.69" y="810.75" width="10" height="120"/><rect x="497.86" y="1002.75" width="120" height="10"/><circle class="cls-1" cx="641.36" cy="1007.75" r="23"/><rect x="497.86" y="920.75" width="10" height="92"/><rect x="468.05" y="700.75" width="120" height="10"/><circle class="cls-1" cx="611.55" cy="705.75" r="23"/><rect x="468.05" y="700.75" width="10" height="120"/><rect x="150.78" y="578.89" width="10" height="361.16"/><circle class="cls-1" cx="155.78" cy="552.69" r="23"/><rect x="260.78" y="736.64" width="10" height="120"/><circle class="cls-1" cx="265.78" cy="713.14" r="23"/><rect x="150.78" y="846.64" width="120" height="10"/><rect x="68.78" y="639.47" width="10" height="120"/><circle class="cls-1" cx="73.78" cy="615.97" r="23"/><rect x="68.78" y="749.47" width="92" height="10"/><rect x="370.78" y="669.27" width="10" height="120"/><circle class="cls-1" cx="375.78" cy="645.77" r="23"/><rect x="260.78" y="779.27" width="120" height="10"/><rect x="370.78" y="261.61" width="10" height="361.16"/><circle class="cls-1" cx="375.78" cy="235.41" r="23"/><rect x="480.78" y="419.36" width="10" height="120"/><circle class="cls-1" cx="485.78" cy="395.86" r="23"/><rect x="370.78" y="529.36" width="120" height="10"/><rect x="288.78" y="322.19" width="10" height="120"/><circle class="cls-1" cx="293.78" cy="298.69" r="23"/><rect x="288.78" y="432.19" width="92" height="10"/><rect x="590.78" y="351.99" width="10" height="120"/><circle class="cls-1" cx="595.78" cy="328.49" r="23"/><rect x="480.78" y="461.99" width="120" height="10"/><rect x="2596.87" y="535.37" width="120" height="10"/><circle class="cls-1" cx="2573.37" cy="540.37" r="23"/><rect x="2706.87" y="425.37" width="10" height="120"/><rect x="2907.02" y="563.37" width="361.16" height="10"/><circle class="cls-1" cx="2880.82" cy="568.37" r="23"/><rect x="3064.77" y="453.37" width="120" height="10"/><circle class="cls-1" cx="3041.27" cy="458.37" r="23"/><rect x="3174.77" y="453.37" width="10" height="120"/><rect x="2967.6" y="645.37" width="120" height="10"/><circle class="cls-1" cx="2944.1" cy="650.37" r="23"/><rect x="3077.6" y="563.37" width="10" height="92"/><rect x="2997.4" y="343.37" width="120" height="10"/><circle class="cls-1" cx="2973.9" cy="348.37" r="23"/><rect x="3107.4" y="343.37" width="10" height="120"/><rect x="2589.74" y="343.37" width="361.16" height="10"/><circle class="cls-1" cx="2563.54" cy="348.37" r="23"/><rect x="2747.49" y="233.37" width="120" height="10"/><circle class="cls-1" cx="2723.99" cy="238.37" r="23"/><rect x="2857.49" y="233.37" width="10" height="120"/><rect x="2650.32" y="425.37" width="120" height="10"/><circle class="cls-1" cx="2626.82" cy="430.37" r="23"/><rect x="2760.32" y="343.37" width="10" height="92"/><rect x="2680.12" y="123.37" width="120" height="10"/><circle class="cls-1" cx="2656.62" cy="128.37" r="23"/><rect x="2790.12" y="123.37" width="10" height="120"/><rect x="3493.36" y="1242.12" width="361.16" height="10"/><circle class="cls-1" cx="3467.16" cy="1247.12" r="23"/><rect x="3651.11" y="1132.12" width="120" height="10"/><circle class="cls-1" cx="3627.61" cy="1137.12" r="23"/><rect x="3761.11" y="1132.12" width="10" height="120"/><rect x="3553.94" y="1324.12" width="120" height="10"/><circle class="cls-1" cx="3530.44" cy="1329.12" r="23"/><rect x="3663.94" y="1242.12" width="10" height="92"/><rect x="3583.75" y="1022.12" width="120" height="10"/><circle class="cls-1" cx="3560.25" cy="1027.12" r="23"/><rect x="3693.75" y="1022.12" width="10" height="120"/><rect x="3176.09" y="1022.12" width="361.16" height="10"/><circle class="cls-1" cx="3149.89" cy="1027.12" r="23"/><rect x="3333.84" y="912.12" width="120" height="10"/><circle class="cls-1" cx="3310.34" cy="917.12" r="23"/><rect x="3443.84" y="912.12" width="10" height="120"/><rect x="3236.67" y="1104.12" width="120" height="10"/><circle class="cls-1" cx="3213.17" cy="1109.12" r="23"/><rect x="3346.67" y="1022.12" width="10" height="92"/><rect x="3266.47" y="802.12" width="120" height="10"/><circle class="cls-1" cx="3242.97" cy="807.12" r="23"/><rect x="3376.47" y="802.12" width="10" height="120"/><rect x="3693.75" y="680.26" width="10" height="361.16"/><circle class="cls-1" cx="3698.75" cy="654.06" r="23"/><rect x="3583.75" y="838.01" width="10" height="120"/><circle class="cls-1" cx="3588.75" cy="814.51" r="23"/><rect x="3583.75" y="948.01" width="120" height="10"/><rect x="3775.75" y="740.84" width="10" height="120"/><circle class="cls-1" cx="3780.75" cy="717.34" r="23"/><rect x="3693.75" y="850.84" width="92" height="10"/><rect x="3473.75" y="770.65" width="10" height="120"/><circle class="cls-1" cx="3478.75" cy="747.15" r="23"/><rect x="3473.75" y="880.65" width="120" height="10"/><rect x="3473.75" y="362.99" width="10" height="361.16"/><circle class="cls-1" cx="3478.75" cy="336.78" r="23"/><rect x="3363.75" y="520.74" width="10" height="120"/><circle class="cls-1" cx="3368.75" cy="497.24" r="23"/><rect x="3363.75" y="630.74" width="120" height="10"/><rect x="3555.75" y="423.57" width="10" height="120"/><circle class="cls-1" cx="3560.75" cy="400.07" r="23"/><rect x="3473.75" y="533.57" width="92" height="10"/><rect x="3253.75" y="453.37" width="10" height="120"/><circle class="cls-1" cx="3258.75" cy="429.87" r="23"/><rect x="3253.75" y="563.37" width="120" height="10"/><path d="M902.75,808.1a8.2,8.2,0,0,1-8.32-8.32V691.46a8,8,0,0,1,2.4-6,8.28,8.28,0,0,1,14.24,6v45.92h26.24V752.1H911.07v47.68a8.23,8.23,0,0,1-2.32,5.92A8,8,0,0,1,902.75,808.1ZM986.27,806a8.92,8.92,0,0,1-12.16-.48l-52.48-61.12,49-58.56a7.4,7.4,0,0,1,5.84-2.8,7.17,7.17,0,0,1,5.84,2.48,7.72,7.72,0,0,1,2.16,5.36,8.52,8.52,0,0,1-2.32,5.36l-40.48,47,44.64,51.84a9.34,9.34,0,0,1,2.48,5.36Q989,803.29,986.27,806Z"/><path d="M1039.86,808.74a45.21,45.21,0,0,1-22.88-5.68,41.29,41.29,0,0,1-15.6-15.68,49.57,49.57,0,0,1,0-46.08,41.15,41.15,0,0,1,15.6-15.68,48.6,48.6,0,0,1,45.6,0,41,41,0,0,1,15.6,15.68,49.88,49.88,0,0,1,.08,46.08,40.6,40.6,0,0,1-15.52,15.68A45.19,45.19,0,0,1,1039.86,808.74Zm0-14.4a28,28,0,0,0,14.72-3.84,26.83,26.83,0,0,0,10-10.56,32.38,32.38,0,0,0,3.6-15.52,32.82,32.82,0,0,0-3.6-15.6,26.65,26.65,0,0,0-10-10.64,30.13,30.13,0,0,0-29.44,0,27.33,27.33,0,0,0-10.08,10.64,32.28,32.28,0,0,0-3.68,15.6,31.85,31.85,0,0,0,3.68,15.52,27.53,27.53,0,0,0,10.08,10.56A28.08,28.08,0,0,0,1039.86,794.34Z"/><path d="M1116.34,808.1a7.93,7.93,0,0,1-8.16-8.16v-71.2a7.83,7.83,0,0,1,2.32-5.92,8,8,0,0,1,5.84-2.24q5.12,0,8.64,5l33.12,47.84,33.12-47.84q3.52-5,8.64-5a7.7,7.7,0,0,1,8.16,8.16v71.2a8.1,8.1,0,0,1-2.24,5.84,8.2,8.2,0,0,1-14.08-5.84V741.7l4.16,1.28-29.44,41.6q-4,5.59-8.64,5.52t-8.48-5.52l-29-41.6,4.16-1.28v58.24a8.1,8.1,0,0,1-2.24,5.84A7.88,7.88,0,0,1,1116.34,808.1Z"/><path d="M1245,808.26a7.93,7.93,0,0,1-8.16-8.16V728.74a7.83,7.83,0,0,1,2.32-5.92,8.13,8.13,0,0,1,14,5.92V800.1a8.1,8.1,0,0,1-2.24,5.84A7.89,7.89,0,0,1,1245,808.26Zm65.76,0a7.93,7.93,0,0,1-8.16-8.16V760.74q0-9.12-3.36-14.88a21.16,21.16,0,0,0-9-8.56,29.11,29.11,0,0,0-13-2.8,26.7,26.7,0,0,0-12.16,2.72,22.66,22.66,0,0,0-8.64,7.28,17.74,17.74,0,0,0-3.2,10.48h-10.08a33.55,33.55,0,0,1,4.88-18,35.13,35.13,0,0,1,13.36-12.56,38.92,38.92,0,0,1,19-4.64,40.79,40.79,0,0,1,19.76,4.72,34,34,0,0,1,13.76,13.84q5,9.12,5,22.4V800.1a7.93,7.93,0,0,1-8.16,8.16Z"/><path d="M1385.46,809.54q-12,0-20.88-4.32A32.35,32.35,0,0,1,1350.82,793a34.77,34.77,0,0,1-4.88-18.64V728.58a8.94,8.94,0,0,1,2.64-5.68,7.5,7.5,0,0,1,5.52-2.32,7.93,7.93,0,0,1,8.16,8.16v17.92h26.24a46.15,46.15,0,0,1,18.64,3.6,30.47,30.47,0,0,1,13,10.4,27.41,27.41,0,0,1,4.8,16.24,29.75,29.75,0,0,1-4.88,16.8,33.48,33.48,0,0,1-13.68,11.6Q1397.61,809.53,1385.46,809.54Zm-.16-15q10.23,0,17.12-4.4t6.88-13.2q0-8.32-5.92-12.4t-14.88-4.08h-26.24V774a18.55,18.55,0,0,0,3,10.4,21.54,21.54,0,0,0,8.24,7.36A25,25,0,0,0,1385.3,794.5Z"/><path d="M1454.74,808.26a7.93,7.93,0,0,1-8.16-8.16V728.74a7.83,7.83,0,0,1,2.32-5.92,8.13,8.13,0,0,1,14,5.92V800.1a8.1,8.1,0,0,1-2.24,5.84A7.89,7.89,0,0,1,1454.74,808.26Zm6.08-37.76a7.52,7.52,0,1,1,0-15H1485a7.52,7.52,0,1,1,0,15Zm63.84,38.24a45.19,45.19,0,0,1-22.88-5.68,41.15,41.15,0,0,1-15.6-15.68,49.57,49.57,0,0,1,0-46.08,41,41,0,0,1,15.6-15.68,48.6,48.6,0,0,1,45.6,0A41.15,41.15,0,0,1,1563,741.3a49.88,49.88,0,0,1,.08,46.08,40.74,40.74,0,0,1-15.52,15.68A45.21,45.21,0,0,1,1524.66,808.74Zm0-14.4a28.08,28.08,0,0,0,14.72-3.84,26.9,26.9,0,0,0,10-10.56,32.38,32.38,0,0,0,3.6-15.52,32.82,32.82,0,0,0-3.6-15.6,26.72,26.72,0,0,0-10-10.64,30.13,30.13,0,0,0-29.44,0,27.19,27.19,0,0,0-10.08,10.64,32.16,32.16,0,0,0-3.68,15.6,31.74,31.74,0,0,0,3.68,15.52,27.38,27.38,0,0,0,10.08,10.56A28,28,0,0,0,1524.66,794.34Z"/><path d="M1601.14,808.26a7.93,7.93,0,0,1-8.16-8.16V728.9a7.83,7.83,0,0,1,2.32-5.92,8.13,8.13,0,0,1,14,5.92v71.2a8.1,8.1,0,0,1-2.24,5.84A7.89,7.89,0,0,1,1601.14,808.26Zm53.44,0a7.93,7.93,0,0,1-8.16-8.16V754.34q0-10.08-5-15t-13-4.88a18.1,18.1,0,0,0-13.76,5.76q-5.45,5.76-5.44,14.72h-10.08a38.73,38.73,0,0,1,4.16-18.32,31.06,31.06,0,0,1,11.52-12.4,31.6,31.6,0,0,1,16.8-4.48,32.12,32.12,0,0,1,16.16,4,27.24,27.24,0,0,1,11,11.76q3.92,7.76,3.92,18.8V800.1a8.1,8.1,0,0,1-2.24,5.84A7.89,7.89,0,0,1,1654.58,808.26Zm53.28,0a7.93,7.93,0,0,1-8.16-8.16V754.34q0-10.08-5-15t-13-4.88a17.85,17.85,0,0,0-13.68,5.76q-5.37,5.76-5.36,14.72h-13.28a36.52,36.52,0,0,1,4.48-18.32,31.81,31.81,0,0,1,12.56-12.4,37.4,37.4,0,0,1,18.48-4.48,32.12,32.12,0,0,1,16.16,4,27.24,27.24,0,0,1,11,11.76q3.92,7.76,3.92,18.8V800.1a8.1,8.1,0,0,1-2.24,5.84A7.89,7.89,0,0,1,1707.86,808.26Z"/><path d="M1784.18,808.74a48.05,48.05,0,0,1-23.6-5.68,41.67,41.67,0,0,1-16.17-15.68,44.72,44.72,0,0,1-5.83-23q0-13.12,5.52-23.12a40.27,40.27,0,0,1,15.28-15.68,43.65,43.65,0,0,1,22.4-5.68q12.48,0,21.44,5.52a36,36,0,0,1,13.68,15.2,50.39,50.39,0,0,1,4.72,22.32,6.73,6.73,0,0,1-2.08,5,7.33,7.33,0,0,1-5.28,2h-64.48v-12.8h64l-6.56,4.48a34.36,34.36,0,0,0-3.2-14.32,23.33,23.33,0,0,0-22.24-13.68,29.07,29.07,0,0,0-15.6,4,25.73,25.73,0,0,0-9.84,11,35.79,35.79,0,0,0-3.37,15.76,30.71,30.71,0,0,0,4,15.68A29.3,29.3,0,0,0,1768,791a32.2,32.2,0,0,0,16.16,4,30.56,30.56,0,0,0,10.16-1.84,31.87,31.87,0,0,0,8.4-4.24,9,9,0,0,1,5.19-1.84,7,7,0,0,1,4.89,1.68,7.61,7.61,0,0,1,2.88,5.28,5.7,5.7,0,0,1-2.56,5,44.51,44.51,0,0,1-13.52,7A48.51,48.51,0,0,1,1784.18,808.74Z"/><path d="M1850.57,845.54a7.93,7.93,0,0,1-8.16-8.16v-73a46.21,46.21,0,0,1,5.92-22.72A42.78,42.78,0,0,1,1864,725.78a44.16,44.16,0,0,1,60.72,15.92,44.41,44.41,0,0,1,5.84,22.72,47.09,47.09,0,0,1-5.36,22.64,41.48,41.48,0,0,1-14.64,15.84,40.47,40.47,0,0,1-38.32,1.92,41.32,41.32,0,0,1-13.52-10.64v43.2a8.06,8.06,0,0,1-2.24,5.84A7.86,7.86,0,0,1,1850.57,845.54Zm35.84-51.2a27.32,27.32,0,0,0,14.56-3.92,28.47,28.47,0,0,0,10.16-10.72,33.25,33.25,0,0,0,0-30.72A28.32,28.32,0,0,0,1901,738.26a28.85,28.85,0,0,0-29,0A27.66,27.66,0,0,0,1861.77,749a33.89,33.89,0,0,0,0,30.72,27.8,27.8,0,0,0,10.16,10.72A27.47,27.47,0,0,0,1886.41,794.34Z"/><path d="M1962.73,808.1a7.42,7.42,0,0,1-5.68-2.32,8.25,8.25,0,0,1-2.16-5.84v-71.2a8.15,8.15,0,0,1,2.16-5.92,7.5,7.5,0,0,1,5.68-2.24,7.7,7.7,0,0,1,8.16,8.16v71.2a8.1,8.1,0,0,1-2.24,5.84A7.88,7.88,0,0,1,1962.73,808.1Zm6.08-38.24v-14.4H2025v14.4Zm59.68,38.24a7.93,7.93,0,0,1-8.16-8.16v-71.2a7.83,7.83,0,0,1,2.32-5.92,8,8,0,0,1,5.84-2.24,7.46,7.46,0,0,1,5.76,2.24,8.32,8.32,0,0,1,2.08,5.92v71.2a8.42,8.42,0,0,1-2.08,5.84A7.37,7.37,0,0,1,2028.49,808.1Z"/><path d="M2101.77,809.7a38.94,38.94,0,0,1-19-4.56,33,33,0,0,1-13-12.56,35.75,35.75,0,0,1-4.64-18.24V728.58a9,9,0,0,1,2.56-5.76,7.57,7.57,0,0,1,5.6-2.24,7.7,7.7,0,0,1,8.16,8.16v17.92h21.92a42.74,42.74,0,0,1,17.84,3.52,28,28,0,0,1,12.16,10.24q4.4,6.72,4.4,16.48,0,10.4-4.56,17.76a29.27,29.27,0,0,1-12.72,11.2A43.48,43.48,0,0,1,2101.77,809.7Zm0-15.2q9,0,14.64-4.4t5.68-13.2q0-8.49-5.28-12.48t-13.44-4h-21.92V774q0,9,5.68,14.72T2101.77,794.5Zm58.08,13.6a7.93,7.93,0,0,1-8.16-8.16v-71.2a7.83,7.83,0,0,1,2.32-5.92,8.13,8.13,0,0,1,14,5.92v71.2a8.1,8.1,0,0,1-2.24,5.84A7.89,7.89,0,0,1,2159.85,808.1Z"/><path d="M2237.93,808.74a48.08,48.08,0,0,1-23.6-5.68,41.58,41.58,0,0,1-16.16-15.68,44.63,44.63,0,0,1-5.84-23,47.06,47.06,0,0,1,5.52-23.12,40.27,40.27,0,0,1,15.28-15.68,43.65,43.65,0,0,1,22.4-5.68q12.48,0,21.44,5.52a36,36,0,0,1,13.68,15.2,50.39,50.39,0,0,1,4.72,22.32,6.73,6.73,0,0,1-2.08,5,7.33,7.33,0,0,1-5.28,2h-64.48v-12.8h64L2261,761.7a34.36,34.36,0,0,0-3.2-14.32,23.33,23.33,0,0,0-22.24-13.68,29.1,29.1,0,0,0-15.6,4,25.73,25.73,0,0,0-9.84,11,35.79,35.79,0,0,0-3.36,15.76,30.61,30.61,0,0,0,4,15.68,29.2,29.2,0,0,0,11,10.88,32.2,32.2,0,0,0,16.16,4,30.56,30.56,0,0,0,10.16-1.84,31.87,31.87,0,0,0,8.4-4.24,9,9,0,0,1,5.2-1.84,7,7,0,0,1,4.88,1.68,7.61,7.61,0,0,1,2.88,5.28,5.7,5.7,0,0,1-2.56,5,44.51,44.51,0,0,1-13.52,7A48.51,48.51,0,0,1,2237.93,808.74Z"/><path d="M2350.89,808.1a7.42,7.42,0,0,1-5.68-2.32,8.25,8.25,0,0,1-2.16-5.84v-71.2a8.15,8.15,0,0,1,2.16-5.92,7.5,7.5,0,0,1,5.68-2.24,7.7,7.7,0,0,1,8.16,8.16v71.2a8.1,8.1,0,0,1-2.24,5.84A7.89,7.89,0,0,1,2350.89,808.1Zm6.08-38.24v-14.4h56.16v14.4Zm59.68,38.24a7.93,7.93,0,0,1-8.16-8.16v-71.2a7.83,7.83,0,0,1,2.32-5.92,8,8,0,0,1,5.84-2.24,7.46,7.46,0,0,1,5.76,2.24,8.37,8.37,0,0,1,2.08,5.92v71.2a8.47,8.47,0,0,1-2.08,5.84A7.37,7.37,0,0,1,2416.65,808.1Z"/><path d="M2489.77,808.74a38.53,38.53,0,0,1-21-5.84,41.48,41.48,0,0,1-14.64-15.84,47.09,47.09,0,0,1-5.36-22.64,44.41,44.41,0,0,1,5.84-22.72,43.13,43.13,0,0,1,15.84-15.92,44.11,44.11,0,0,1,60.64,15.92,44.51,44.51,0,0,1,5.84,22.72h-6.24a47.2,47.2,0,0,1-5.36,22.64,41.63,41.63,0,0,1-14.64,15.84A38.58,38.58,0,0,1,2489.77,808.74Zm3.2-14.4a27.35,27.35,0,0,0,14.56-3.92,28,28,0,0,0,10.08-10.72,33.89,33.89,0,0,0,0-30.72,27.9,27.9,0,0,0-10.08-10.72,28.85,28.85,0,0,0-29,0A28.15,28.15,0,0,0,2468.25,749a33.25,33.25,0,0,0,0,30.72,28.29,28.29,0,0,0,10.24,10.72A27.44,27.44,0,0,0,2493,794.34Zm35.84,13.92a7.93,7.93,0,0,1-8.16-8.16V775.62l3-17,13.28,5.76V800.1a7.93,7.93,0,0,1-8.16,8.16Z"/><path d="M2554.57,846.5a22.51,22.51,0,0,1-5.85-.8,26.59,26.59,0,0,1-5.83-2.4,10.11,10.11,0,0,1-4.64-5.12,6,6,0,0,1,1-5.92,7.8,7.8,0,0,1,4.64-3.36,7.69,7.69,0,0,1,5.75,1.12,18.76,18.76,0,0,0,3.29,1.44,10.27,10.27,0,0,0,3.12.48q5.11,0,9.84-5.28t9.36-15.68l38.24-86.4a7.74,7.74,0,0,1,4.4-4.32,7.38,7.38,0,0,1,6,.32,5.79,5.79,0,0,1,3.52,4.08,9,9,0,0,1-.8,6.32L2588,817.38a62,62,0,0,1-14.64,21Q2564.49,846.49,2554.57,846.5Zm36.48-41.92a7.33,7.33,0,0,1-5.68.24,8.25,8.25,0,0,1-4.24-4.08l-36.64-69.6a6.5,6.5,0,0,1-.4-5.84,7.56,7.56,0,0,1,4.24-4.08A7.24,7.24,0,0,1,2554,721a8.24,8.24,0,0,1,4.24,4.08l35.2,69a9.8,9.8,0,0,1,1.12,6.16A5.46,5.46,0,0,1,2591.05,804.58Z"/><path d="M2651.84,808.26a7.18,7.18,0,0,1-5.6-2.32,8.47,8.47,0,0,1-2.08-5.84V728.74a8.37,8.37,0,0,1,2.08-5.92,7.26,7.26,0,0,1,5.6-2.24,8.23,8.23,0,0,1,6,2.24,7.83,7.83,0,0,1,2.32,5.92v26.72h20.48v15h-20.48v29.6a7.92,7.92,0,0,1-2.32,5.84A8.12,8.12,0,0,1,2651.84,808.26Zm63.36-2.08a8,8,0,0,1-5.84,1.84,8.19,8.19,0,0,1-5.84-2.16l-38.88-41.76,36.64-41a8.61,8.61,0,0,1,5.84-2.56,7.28,7.28,0,0,1,5.84,1.6,8,8,0,0,1,2.72,5,6.1,6.1,0,0,1-1.76,5l-29,31,30.72,33a6.48,6.48,0,0,1-.48,9.92Z"/><path d="M2774.56,808.9a40.93,40.93,0,0,1-19.76-4.72A34.09,34.09,0,0,1,2741,790.34q-5-9.12-5-22.4V728.58a8.16,8.16,0,1,1,16.32,0v39.36q0,9,3.36,14.8a21,21,0,0,0,9.12,8.64,29.35,29.35,0,0,0,13,2.8,26.7,26.7,0,0,0,12.24-2.72,22.61,22.61,0,0,0,8.56-7.36,17.91,17.91,0,0,0,3.2-10.4h10.08a33.69,33.69,0,0,1-4.88,17.92,35.23,35.23,0,0,1-13.28,12.64A38.91,38.91,0,0,1,2774.56,808.9Zm35.36-.8a7.93,7.93,0,0,1-8.16-8.16V728.58a7.86,7.86,0,0,1,2.32-5.92,8.06,8.06,0,0,1,5.84-2.24,7.7,7.7,0,0,1,8.16,8.16v71.36a8.06,8.06,0,0,1-2.24,5.84A7.86,7.86,0,0,1,2809.92,808.1Z"/></g></g></svg>