<svg xmlns="http://www.w3.org/2000/svg" viewBox="0 0 634.11 550.37"><defs><style>.cls-1,.cls-3,.cls-4{fill:#55c663;}.cls-2{fill:#1e1e1e;}.cls-3,.cls-4{font-size:76.8px;}.cls-3{font-family:FranklinGothic-Medium, Franklin Gothic Medium;font-weight:500;letter-spacing:-0.02em;}.cls-4{font-family:CenturyGothic, Century Gothic;letter-spacing:-0.02em;}</style></defs><g id="Слой_2" data-name="Слой 2"><g id="Слой_1-2" data-name="Слой 1"><path class="cls-1" d="M144.12,365.33a2.57,2.57,0,0,0-.46.37,3.22,3.22,0,0,1,.38-.35Z"/><path class="cls-1" d="M144.12,423.53a13.59,13.59,0,0,0,4.85.9h-2A4.93,4.93,0,0,1,144.12,423.53Z"/><path class="cls-1" d="M316,369.43v50a5,5,0,0,1-5,5H149a13.59,13.59,0,0,1-4.85-.9c-8.71-3.24-15.15-15-15.15-29.1s6.41-25.79,15.07-29.08c-.14.11,0,0,0,0l.15-.12,130.69-99.07a5,5,0,0,1,7,1L293.12,282a5,5,0,0,1-1,7l-99.57,75.48H311A5,5,0,0,1,316,369.43Z"/><path d="M481.77,202.81a12.84,12.84,0,0,1-11.43-6.53,13.81,13.81,0,0,1-1.77-6.81V167.58a2.39,2.39,0,0,1,.69-1.78,2.47,2.47,0,0,1,1.76-.67,2.3,2.3,0,0,1,2.44,2.45v13a12.4,12.4,0,0,1,4.06-3.19,12.11,12.11,0,0,1,11.5.58,12.41,12.41,0,0,1,4.39,4.75,14.16,14.16,0,0,1,1.61,6.79,13.29,13.29,0,0,1-1.76,6.81,12.88,12.88,0,0,1-11.49,6.53Zm0-4.32a8.24,8.24,0,0,0,4.37-1.17,8.55,8.55,0,0,0,3-3.24,9.37,9.37,0,0,0,1.13-4.61,9.18,9.18,0,0,0-1.13-4.61,8.55,8.55,0,0,0-3-3.19,8.42,8.42,0,0,0-11.76,3.19,9.39,9.39,0,0,0-1.11,4.61,9.58,9.58,0,0,0,1.11,4.61,8.17,8.17,0,0,0,7.39,4.41Z"/><path d="M511.34,202.81a13.65,13.65,0,0,1-6.87-1.7,12.42,12.42,0,0,1-4.68-4.7,14.91,14.91,0,0,1,0-13.83,12.35,12.35,0,0,1,4.68-4.7,13.55,13.55,0,0,1,6.87-1.71,13.4,13.4,0,0,1,6.81,1.71,12.22,12.22,0,0,1,4.68,4.7,15,15,0,0,1,0,13.83,12.3,12.3,0,0,1-4.66,4.7A13.61,13.61,0,0,1,511.34,202.81Zm0-4.32a8.38,8.38,0,0,0,4.41-1.15,8,8,0,0,0,3-3.17,9.67,9.67,0,0,0,1.08-4.65,9.85,9.85,0,0,0-1.08-4.68,8,8,0,0,0-3-3.2,9,9,0,0,0-8.83,0,8.17,8.17,0,0,0-3,3.2,9.63,9.63,0,0,0-1.11,4.68,9.46,9.46,0,0,0,1.11,4.65,8.15,8.15,0,0,0,3,3.17A8.39,8.39,0,0,0,511.34,198.49Z"/><path d="M540.85,202.81a13.63,13.63,0,0,1-6.86-1.7,12.42,12.42,0,0,1-4.68-4.7,14.91,14.91,0,0,1,0-13.83,12.35,12.35,0,0,1,4.68-4.7,14.53,14.53,0,0,1,13.68,0,12.29,12.29,0,0,1,4.68,4.7,13.76,13.76,0,0,1,1.71,6.94,14,14,0,0,1-1.68,6.89,12.3,12.3,0,0,1-4.66,4.7A13.65,13.65,0,0,1,540.85,202.81Zm0-4.32a8.39,8.39,0,0,0,4.42-1.15,8,8,0,0,0,3-3.17,9.67,9.67,0,0,0,1.08-4.65,9.85,9.85,0,0,0-1.08-4.68,8,8,0,0,0-3-3.2,9,9,0,0,0-8.83,0,8.17,8.17,0,0,0-3,3.2,9.63,9.63,0,0,0-1.11,4.68,9.46,9.46,0,0,0,1.11,4.65,8.15,8.15,0,0,0,3,3.17A8.38,8.38,0,0,0,540.85,198.49Z"/><path d="M560.82,202.62a2.27,2.27,0,0,1-1.7-.65,2.31,2.31,0,0,1-.65-1.7V167.48a2.36,2.36,0,1,1,4.71,0v32.79a2.31,2.31,0,0,1-.65,1.7A2.28,2.28,0,0,1,560.82,202.62Zm2.26-9.6-3-3.26,14.74-13.16a2.15,2.15,0,0,1,1.61-.62,2.39,2.39,0,0,1,2.13,2.35,2.23,2.23,0,0,1-.77,1.54ZM578,202.38a2.31,2.31,0,0,1-1.71.55,2.15,2.15,0,0,1-1.56-.84L565,190l3.36-3.16,10,12.28a2.17,2.17,0,0,1-.33,3.22Z"/><path d="M592.45,202.81a18.06,18.06,0,0,1-6.21-1,11.79,11.79,0,0,1-4.44-2.62,2.08,2.08,0,0,1-.6-1.75,2.34,2.34,0,0,1,.93-1.61,2.51,2.51,0,0,1,1.9-.64,2.62,2.62,0,0,1,1.61.84,7.54,7.54,0,0,0,2.61,1.7,9.83,9.83,0,0,0,4,.79,8.09,8.09,0,0,0,4.25-.91,2.81,2.81,0,0,0,1.51-2.35,2.94,2.94,0,0,0-1.37-2.5,13.12,13.12,0,0,0-5.16-1.73q-4.85-.94-7-2.88a6,6,0,0,1-2.18-4.7,5.84,5.84,0,0,1,1.44-4,8.59,8.59,0,0,1,3.69-2.4,14.12,14.12,0,0,1,4.71-.8,14.66,14.66,0,0,1,5.61,1,9.47,9.47,0,0,1,3.89,2.79,2.2,2.2,0,0,1,.63,1.6,1.91,1.91,0,0,1-.82,1.42,2.39,2.39,0,0,1-1.82.34,3.44,3.44,0,0,1-1.78-.87,6.4,6.4,0,0,0-2.59-1.58,10.82,10.82,0,0,0-3.22-.43,8,8,0,0,0-3.57.71,2.28,2.28,0,0,0-1.47,2.12,2.77,2.77,0,0,0,.46,1.56,3.77,3.77,0,0,0,1.8,1.24,22.7,22.7,0,0,0,3.93,1.08,21.23,21.23,0,0,1,5.69,1.83,7.62,7.62,0,0,1,3,2.57,6.22,6.22,0,0,1,.91,3.38,7.07,7.07,0,0,1-1.17,4,8.15,8.15,0,0,1-3.46,2.84A13.58,13.58,0,0,1,592.45,202.81Z"/><path class="cls-2" d="M174.77,409.81a12.84,12.84,0,0,1-11.43-6.53,13.81,13.81,0,0,1-1.77-6.81V374.58a2.39,2.39,0,0,1,.69-1.78,2.47,2.47,0,0,1,1.76-.67,2.3,2.3,0,0,1,2.44,2.45v13a12.4,12.4,0,0,1,4.06-3.19,12.11,12.11,0,0,1,11.5.58,12.41,12.41,0,0,1,4.39,4.75,14.16,14.16,0,0,1,1.61,6.79,13.29,13.29,0,0,1-1.76,6.81,12.88,12.88,0,0,1-11.49,6.53Zm0-4.32a8.24,8.24,0,0,0,4.37-1.17,8.55,8.55,0,0,0,3-3.24,9.37,9.37,0,0,0,1.13-4.61,9.18,9.18,0,0,0-1.13-4.61,8.55,8.55,0,0,0-3-3.19,8.42,8.42,0,0,0-11.76,3.19,9.39,9.39,0,0,0-1.11,4.61,9.58,9.58,0,0,0,1.11,4.61,8.17,8.17,0,0,0,7.39,4.41Z"/><path class="cls-2" d="M204.34,409.81a13.65,13.65,0,0,1-6.87-1.7,12.42,12.42,0,0,1-4.68-4.7,14.91,14.91,0,0,1,0-13.83,12.35,12.35,0,0,1,4.68-4.7,13.55,13.55,0,0,1,6.87-1.71,13.4,13.4,0,0,1,6.81,1.71,12.22,12.22,0,0,1,4.68,4.7,15,15,0,0,1,0,13.83,12.3,12.3,0,0,1-4.66,4.7A13.61,13.61,0,0,1,204.34,409.81Zm0-4.32a8.38,8.38,0,0,0,4.41-1.15,8,8,0,0,0,3-3.17,9.67,9.67,0,0,0,1.08-4.65,9.85,9.85,0,0,0-1.08-4.68,8,8,0,0,0-3-3.2,9,9,0,0,0-8.83,0,8.17,8.17,0,0,0-3,3.2,9.63,9.63,0,0,0-1.11,4.68,9.46,9.46,0,0,0,1.11,4.65,8.15,8.15,0,0,0,3,3.17A8.39,8.39,0,0,0,204.34,405.49Z"/><path class="cls-2" d="M233.85,409.81a13.63,13.63,0,0,1-6.86-1.7,12.42,12.42,0,0,1-4.68-4.7,14.91,14.91,0,0,1,0-13.83,12.35,12.35,0,0,1,4.68-4.7,14.53,14.53,0,0,1,13.68,0,12.29,12.29,0,0,1,4.68,4.7,13.76,13.76,0,0,1,1.71,6.94,14,14,0,0,1-1.68,6.89,12.3,12.3,0,0,1-4.66,4.7A13.65,13.65,0,0,1,233.85,409.81Zm0-4.32a8.39,8.39,0,0,0,4.42-1.15,8,8,0,0,0,3-3.17,9.67,9.67,0,0,0,1.08-4.65,9.85,9.85,0,0,0-1.08-4.68,8,8,0,0,0-3-3.2,9,9,0,0,0-8.83,0,8.17,8.17,0,0,0-3,3.2,9.63,9.63,0,0,0-1.11,4.68,9.46,9.46,0,0,0,1.11,4.65,8.15,8.15,0,0,0,3,3.17A8.38,8.38,0,0,0,233.85,405.49Z"/><path class="cls-2" d="M253.82,409.62a2.27,2.27,0,0,1-1.7-.65,2.31,2.31,0,0,1-.65-1.7V374.48a2.36,2.36,0,1,1,4.71,0v32.79a2.31,2.31,0,0,1-.65,1.7A2.28,2.28,0,0,1,253.82,409.62Zm2.26-9.6-3-3.26,14.74-13.16a2.15,2.15,0,0,1,1.61-.62,2.39,2.39,0,0,1,2.13,2.35,2.23,2.23,0,0,1-.77,1.54ZM271,409.38a2.31,2.31,0,0,1-1.71.55,2.15,2.15,0,0,1-1.56-.84L258,397l3.36-3.16,10,12.28a2.17,2.17,0,0,1-.33,3.22Z"/><path class="cls-2" d="M285.45,409.81a18.06,18.06,0,0,1-6.21-1,11.79,11.79,0,0,1-4.44-2.62,2.08,2.08,0,0,1-.6-1.75,2.34,2.34,0,0,1,.93-1.61,2.51,2.51,0,0,1,1.9-.64,2.62,2.62,0,0,1,1.61.84,7.54,7.54,0,0,0,2.61,1.7,9.83,9.83,0,0,0,4,.79,8.09,8.09,0,0,0,4.25-.91,2.81,2.81,0,0,0,1.51-2.35,2.94,2.94,0,0,0-1.37-2.5,13.12,13.12,0,0,0-5.16-1.73q-4.85-.94-7-2.88a6,6,0,0,1-2.18-4.7,5.84,5.84,0,0,1,1.44-4.05,8.59,8.59,0,0,1,3.69-2.4,14.12,14.12,0,0,1,4.71-.8,14.66,14.66,0,0,1,5.61,1,9.47,9.47,0,0,1,3.89,2.79,2.2,2.2,0,0,1,.63,1.6,1.91,1.91,0,0,1-.82,1.42,2.39,2.39,0,0,1-1.82.34,3.44,3.44,0,0,1-1.78-.87,6.4,6.4,0,0,0-2.59-1.58,10.82,10.82,0,0,0-3.22-.43,8,8,0,0,0-3.57.71,2.28,2.28,0,0,0-1.47,2.12,2.77,2.77,0,0,0,.46,1.56,3.77,3.77,0,0,0,1.8,1.24,22.7,22.7,0,0,0,3.93,1.08,21.23,21.23,0,0,1,5.69,1.83,7.62,7.62,0,0,1,3,2.57,6.22,6.22,0,0,1,.91,3.38,7.07,7.07,0,0,1-1.17,4,8.15,8.15,0,0,1-3.46,2.84A13.58,13.58,0,0,1,285.45,409.81Z"/><ellipse class="cls-1" cx="467.11" cy="129.29" rx="20" ry="30"/><rect class="cls-1" x="460.11" y="99.29" width="174" height="60" rx="5"/><rect class="cls-1" x="449.31" y="47.65" width="174" height="28.6" rx="5" transform="translate(71.5 336.57) rotate(-37.16)"/><path d="M492.91,144.67a12.84,12.84,0,0,1-11.43-6.53,13.87,13.87,0,0,1-1.77-6.82V109.43a2.37,2.37,0,0,1,.69-1.77,2.43,2.43,0,0,1,1.76-.67,2.3,2.3,0,0,1,2.44,2.44v13a12.53,12.53,0,0,1,4.06-3.19,12.18,12.18,0,0,1,11.5.58,12.56,12.56,0,0,1,4.39,4.75,14.16,14.16,0,0,1,1.61,6.79,13.35,13.35,0,0,1-1.76,6.82,12.88,12.88,0,0,1-11.49,6.53Zm0-4.32a8.18,8.18,0,0,0,4.37-1.18,8.48,8.48,0,0,0,3-3.24,9.45,9.45,0,0,0,1.13-4.61,9.32,9.32,0,0,0-1.13-4.61,8.7,8.7,0,0,0-3-3.19,8.71,8.71,0,0,0-8.72,0,8.39,8.39,0,0,0-3,3.19,9.41,9.41,0,0,0-1.11,4.61,9.55,9.55,0,0,0,1.11,4.61,8.21,8.21,0,0,0,7.39,4.42Z"/><path d="M522.47,144.67a13.51,13.51,0,0,1-6.86-1.71,12.35,12.35,0,0,1-4.68-4.7,14.91,14.91,0,0,1,0-13.83,12.5,12.5,0,0,1,4.68-4.7,14.61,14.61,0,0,1,13.68,0,12.5,12.5,0,0,1,4.68,4.7,15,15,0,0,1,0,13.83,12.14,12.14,0,0,1-4.65,4.7A13.55,13.55,0,0,1,522.47,144.67Zm0-4.32a8.4,8.4,0,0,0,4.42-1.16,8,8,0,0,0,3-3.16,9.74,9.74,0,0,0,1.08-4.66,9.85,9.85,0,0,0-1.08-4.68,8,8,0,0,0-3-3.19,9,9,0,0,0-8.83,0,8.24,8.24,0,0,0-3,3.19,9.74,9.74,0,0,0-1.1,4.68A9.64,9.64,0,0,0,515,136a8.22,8.22,0,0,0,3,3.16A8.39,8.39,0,0,0,522.47,140.35Z"/><path d="M552,144.67a13.51,13.51,0,0,1-6.86-1.71,12.35,12.35,0,0,1-4.68-4.7,14.91,14.91,0,0,1,0-13.83,12.5,12.5,0,0,1,4.68-4.7,14.61,14.61,0,0,1,13.68,0,12.5,12.5,0,0,1,4.68,4.7,15,15,0,0,1,0,13.83,12.14,12.14,0,0,1-4.65,4.7A13.55,13.55,0,0,1,552,144.67Zm0-4.32a8.4,8.4,0,0,0,4.42-1.16,8,8,0,0,0,3-3.16,9.74,9.74,0,0,0,1.08-4.66,9.85,9.85,0,0,0-1.08-4.68,8,8,0,0,0-3-3.19,9,9,0,0,0-8.83,0,8.24,8.24,0,0,0-3,3.19,9.74,9.74,0,0,0-1.1,4.68,9.64,9.64,0,0,0,1.1,4.66,8.22,8.22,0,0,0,3,3.16A8.39,8.39,0,0,0,552,140.35Z"/><path d="M572,144.47a2.3,2.3,0,0,1-1.7-.64,2.33,2.33,0,0,1-.65-1.71V109.34a2.35,2.35,0,0,1,.65-1.71A2.3,2.3,0,0,1,572,107a2.2,2.2,0,0,1,2.35,2.35v32.78a2.2,2.2,0,0,1-2.35,2.35Zm2.26-9.6-3-3.26L586,118.46a2.09,2.09,0,0,1,3.12.14,2.1,2.1,0,0,1,.62,1.59,2.23,2.23,0,0,1-.77,1.53Zm14.88,9.36a2.36,2.36,0,0,1-1.71.56,2.19,2.19,0,0,1-1.56-.84l-9.74-12,3.36-3.17,10,12.29a2.28,2.28,0,0,1,.56,1.65A2.22,2.22,0,0,1,589.1,144.23Z"/><path d="M603.59,144.67a18.06,18.06,0,0,1-6.21-1,11.78,11.78,0,0,1-4.44-2.61,2.09,2.09,0,0,1-.6-1.75,2.3,2.3,0,0,1,.93-1.61,2.53,2.53,0,0,1,1.9-.65,2.62,2.62,0,0,1,1.61.84,7.4,7.4,0,0,0,2.61,1.7,9.83,9.83,0,0,0,4,.8,8.08,8.08,0,0,0,4.25-.92,2.82,2.82,0,0,0,1.51-2.35,2.91,2.91,0,0,0-1.37-2.49,13,13,0,0,0-5.16-1.73q-4.85-1-7-2.88a6,6,0,0,1-2.18-4.71,5.84,5.84,0,0,1,1.44-4,8.78,8.78,0,0,1,3.69-2.4,14.11,14.11,0,0,1,4.71-.79,14.66,14.66,0,0,1,5.61,1,9.65,9.65,0,0,1,3.89,2.79,2.22,2.22,0,0,1,.63,1.61,1.88,1.88,0,0,1-.82,1.41,2.31,2.31,0,0,1-1.82.34,3.44,3.44,0,0,1-1.78-.87,6.62,6.62,0,0,0-2.59-1.58,10.82,10.82,0,0,0-3.22-.43,8,8,0,0,0-3.57.72,2.27,2.27,0,0,0-1.47,2.11,2.72,2.72,0,0,0,.46,1.56,3.84,3.84,0,0,0,1.8,1.25,22.7,22.7,0,0,0,3.93,1.08,21.63,21.63,0,0,1,5.69,1.82,7.7,7.7,0,0,1,3,2.57,6.27,6.27,0,0,1,.91,3.38,7.07,7.07,0,0,1-1.17,4,8.13,8.13,0,0,1-3.46,2.83A13.6,13.6,0,0,1,603.59,144.67Z"/><rect class="cls-1" x="447.12" y="215.75" width="38.81" height="38.81"/><rect class="cls-2" x="499.93" y="215.75" width="38.81" height="38.81"/><text class="cls-3" transform="translate(1.16 414.1)">Лав</text><text class="cls-4" transform="translate(1.16 526.82)">Лав</text></g></g></svg>