<svg width="40" height="40" viewBox="0 0 40 40" fill="none" xmlns="http://www.w3.org/2000/svg">
<g id="search-icon">
<path id="search" d="M17.7802 6.5C20.3741 6.5 22.8618 7.53042 24.6959 9.36457C26.5301 11.1987 27.5605 13.6864 27.5605 16.2802C27.5605 18.7027 26.6727 20.9296 25.2132 22.6449L25.6195 23.0512H26.8082L34.3314 30.5745L32.0745 32.8314L24.5512 25.3082V24.1195L24.1449 23.7132C22.3703 25.2281 20.1135 26.0603 17.7802 26.0605C15.1864 26.0605 12.6987 25.0301 10.8646 23.1959C9.03042 21.3618 8 18.8741 8 16.2802C8 13.6864 9.03042 11.1987 10.8646 9.36457C12.6987 7.53042 15.1864 6.5 17.7802 6.5ZM17.7802 9.50931C14.0186 9.50931 11.0093 12.5186 11.0093 16.2802C11.0093 20.0419 14.0186 23.0512 17.7802 23.0512C21.5419 23.0512 24.5512 20.0419 24.5512 16.2802C24.5512 12.5186 21.5419 9.50931 17.7802 9.50931Z" fill="white" fill-opacity="0.7"/>
</g>
</svg>
