<svg width="40" height="40" viewBox="0 0 40 40" fill="none" xmlns="http://www.w3.org/2000/svg">
<rect x="0.000976562" y="0.000488281" width="39.9996" height="39.9996" rx="6.6666" fill="#DEFFDD"/>
<path d="M17.7811 6.50024C20.375 6.50024 22.8626 7.53065 24.6967 9.36478C26.5309 11.1989 27.5613 13.6865 27.5613 16.2804C27.5613 18.7029 26.6735 20.9297 25.214 22.645L25.6203 23.0513H26.809L34.3321 30.5745L32.0752 32.8314L24.552 25.3082V24.1196L24.1457 23.7133C22.3711 25.2281 20.1144 26.0604 17.7811 26.0605C15.1873 26.0605 12.6996 25.0301 10.8655 23.196C9.03138 21.3619 8.00098 18.8742 8.00098 16.2804C8.00098 13.6865 9.03138 11.1989 10.8655 9.36478C12.6996 7.53065 15.1873 6.50024 17.7811 6.50024ZM17.7811 9.50952C14.0195 9.50952 11.0103 12.5188 11.0103 16.2804C11.0103 20.042 14.0195 23.0513 17.7811 23.0513C21.5427 23.0513 24.552 20.042 24.552 16.2804C24.552 12.5188 21.5427 9.50952 17.7811 9.50952Z" fill="#2CA54E"/>
</svg>
