<svg width="60" height="60" viewBox="0 0 60 60" fill="none" xmlns="http://www.w3.org/2000/svg">
<rect width="60" height="60" rx="10" fill="#2CA54E"/>
<path d="M36.7878 24.5337C39.1026 26.1195 41.9382 27.0525 45.0009 27.0525V21.4043C44.4213 21.4044 43.8431 21.3465 43.2761 21.2314V25.6773C40.2137 25.6773 37.3784 24.7442 35.063 23.1586V34.6849C35.063 40.4509 30.1858 45.1249 24.1697 45.1249C21.925 45.1249 19.8386 44.4745 18.1055 43.3591C20.0836 45.2975 22.8422 46.5 25.8942 46.5C31.9106 46.5 36.7881 41.826 36.7881 36.0597V24.5337H36.7878ZM38.9156 18.8353C37.7326 17.5967 36.9559 15.9961 36.7878 14.2265V13.5H35.1534C35.5648 15.7492 36.9681 17.6707 38.9156 18.8353ZM21.9106 38.9344C21.2497 38.1039 20.8925 37.0879 20.8941 36.0432C20.8941 33.4061 23.125 31.2678 25.8772 31.2678C26.3901 31.2677 26.9 31.3429 27.3888 31.4916V25.7172C26.8175 25.6421 26.241 25.6103 25.6647 25.622V30.1165C25.1755 29.9679 24.6654 29.8923 24.1524 29.8928C21.4002 29.8928 19.1695 32.0308 19.1695 34.6684C19.1695 36.5333 20.2845 38.1479 21.9106 38.9344Z" fill="white"/>
<path d="M35.0623 23.1584C37.3776 24.7441 40.2129 25.6772 43.2753 25.6772V21.2312C41.5659 20.8823 40.0526 20.0261 38.9148 18.8353C36.9672 17.6706 35.564 15.749 35.1526 13.5H30.8593V36.0595C30.8495 38.6895 28.6225 40.819 25.8762 40.819C24.2578 40.819 22.8201 40.0797 21.9095 38.9344C20.2835 38.1479 19.1685 36.5332 19.1685 34.6685C19.1685 32.0312 21.3992 29.8929 24.1514 29.8929C24.6787 29.8929 25.187 29.9716 25.6637 30.1166V25.6221C19.7534 25.7391 15 30.3674 15 36.0596C15 38.9011 16.1837 41.4771 18.1048 43.3592C19.838 44.4745 21.9244 45.125 24.1691 45.125C30.1853 45.125 35.0624 40.4508 35.0624 34.6849V23.1584H35.0623Z" fill="white"/>
</svg>
