<svg width="60" height="61" viewBox="0 0 60 61" fill="none" xmlns="http://www.w3.org/2000/svg">
<g id="vk">
<rect y="0.5" width="60" height="60" rx="10" fill="#DEFFDD"/>
<path id="vk_2" fill-rule="evenodd" clip-rule="evenodd" d="M14.111 18.5H9.18791C7.78132 18.5 7.5 19.0937 7.5 19.7505C7.5 20.9215 9.16822 26.7295 15.2714 34.4107C19.3393 39.6566 25.0711 42.5 30.2868 42.5C33.4164 42.5 33.8032 41.8684 33.8032 40.7808V36.8158C33.8032 35.5526 34.0986 35.3 35.0903 35.3C35.8217 35.3 37.0736 35.6284 39.9936 38.1573C43.3315 41.1547 43.8815 42.5 45.7593 42.5H50.6823C52.0889 42.5 52.7922 41.8684 52.3857 40.6217C51.9426 39.38 50.349 37.5775 48.2334 35.4415C47.0857 34.2238 45.364 32.9114 44.8436 32.2558C44.1121 31.4133 44.3231 31.0381 44.8436 30.2891C44.8436 30.2891 50.8413 22.7013 51.4686 20.1257C51.7809 19.1884 51.4686 18.5 49.9776 18.5H45.056C43.8041 18.5 43.2274 19.0937 42.9151 19.7505C42.9151 19.7505 40.4114 25.2301 36.8654 28.7897C35.7176 29.8204 35.1958 30.1488 34.5698 30.1488C34.2576 30.1488 33.8046 29.8204 33.8046 28.8844V20.1257C33.8046 19.0015 33.4403 18.5 32.3981 18.5H24.6618C23.8797 18.5 23.4099 19.0217 23.4099 19.5168C23.4099 20.5817 25.1822 20.828 25.3651 23.8242V30.3358C25.3651 31.7632 25.0782 32.0221 24.4508 32.0221C22.7826 32.0221 18.7232 26.5173 16.3151 20.2192C15.8425 18.9926 15.3685 18.5 14.111 18.5Z" fill="#2CA54E"/>
</g>
</svg>
