<svg width="20" height="24" viewBox="0 0 20 24" fill="none" xmlns="http://www.w3.org/2000/svg">
<g id="pos-icon" clip-path="url(#clip0_523_6384)">
<path id="Vector" fill-rule="evenodd" clip-rule="evenodd" d="M0.171875 9.94396C0.171875 4.52007 4.55793 0.0981445 9.99977 0.0981445C15.4416 0.0981445 19.8277 4.52007 19.8277 9.94396C19.8277 12.5624 19.0706 15.3745 17.7318 17.8036C16.3952 20.2293 14.4431 22.3373 11.999 23.4633C11.3732 23.7519 10.6907 23.9015 9.99977 23.9015C9.30883 23.9015 8.62632 23.7519 8.0005 23.4633C5.55644 22.3373 3.60434 20.2304 2.26775 17.8036C0.928904 15.3745 0.171875 12.5624 0.171875 9.94396ZM9.99977 1.75886C5.51601 1.75886 1.85666 5.40911 1.85666 9.94396C1.85666 12.2656 2.53394 14.8065 3.74811 17.0109C4.9634 19.2174 6.68188 21.0231 8.7126 21.9587C9.11528 22.1446 9.55453 22.241 9.99921 22.241C10.4439 22.241 10.8831 22.1446 11.2858 21.9587C13.3177 21.0231 15.0362 19.2174 16.2514 17.0109C17.4656 14.8076 18.1429 12.2656 18.1429 9.94396C18.1429 5.40911 14.4835 1.75886 9.99977 1.75886ZM9.99977 7.29457C9.6679 7.29457 9.33928 7.35901 9.03267 7.48419C8.72606 7.60938 8.44746 7.79287 8.21279 8.02419C7.97812 8.25551 7.79197 8.53012 7.66497 8.83235C7.53797 9.13458 7.4726 9.45851 7.4726 9.78564C7.4726 10.1128 7.53797 10.4367 7.66497 10.7389C7.79197 11.0412 7.97812 11.3158 8.21279 11.5471C8.44746 11.7784 8.72606 11.9619 9.03267 12.0871C9.33928 12.2123 9.6679 12.2767 9.99977 12.2767C10.67 12.2767 11.3128 12.0143 11.7868 11.5471C12.2607 11.0799 12.5269 10.4463 12.5269 9.78564C12.5269 9.12497 12.2607 8.49136 11.7868 8.02419C11.3128 7.55702 10.67 7.29457 9.99977 7.29457ZM5.78782 9.78564C5.78782 8.68452 6.23158 7.6285 7.02147 6.84989C7.81137 6.07128 8.88269 5.63386 9.99977 5.63386C11.1169 5.63386 12.1882 6.07128 12.9781 6.84989C13.768 7.6285 14.2117 8.68452 14.2117 9.78564C14.2117 10.8868 13.768 11.9428 12.9781 12.7214C12.1882 13.5 11.1169 13.9374 9.99977 13.9374C8.88269 13.9374 7.81137 13.5 7.02147 12.7214C6.23158 11.9428 5.78782 10.8868 5.78782 9.78564Z" fill="white"/>
</g>
<defs>
<clipPath id="clip0_523_6384">
<rect width="20" height="24" fill="white"/>
</clipPath>
</defs>
</svg>
