<svg width="30" height="30" viewBox="0 0 30 30" fill="none" xmlns="http://www.w3.org/2000/svg">
<g id="mail">
<g id="mail_2">
<path id="Vector" d="M3.75 9.21429C3.75 8.56072 4.01339 7.93392 4.48223 7.47177C4.95107 7.00963 5.58696 6.75 6.25 6.75H23.75C24.413 6.75 25.0489 7.00963 25.5178 7.47177C25.9866 7.93392 26.25 8.56072 26.25 9.21429V21.5357C26.25 22.1893 25.9866 22.8161 25.5178 23.2782C25.0489 23.7404 24.413 24 23.75 24H6.25C5.58696 24 4.95107 23.7404 4.48223 23.2782C4.01339 22.8161 3.75 22.1893 3.75 21.5357V9.21429Z" stroke="white" stroke-width="2" stroke-linecap="round" stroke-linejoin="round"/>
<path id="Vector_2" d="M3.75 9.21399L15 16.6068L26.25 9.21399" stroke="white" stroke-width="2" stroke-linecap="round" stroke-linejoin="round"/>
</g>
</g>
</svg>
