<svg width="30" height="31" viewBox="0 0 30 31" fill="none" xmlns="http://www.w3.org/2000/svg">
<g id="right-pointer">
<path id="Vector" d="M8.01963 28.4664C7.67321 28.1107 7.5 27.6895 7.5 27.2028C7.5 26.7162 7.67321 26.2955 8.01963 25.9407L18.1697 15.5178L7.98499 5.05929C7.66166 4.72727 7.5 4.31225 7.5 3.81423C7.5 3.31621 7.67321 2.88933 8.01963 2.5336C8.36605 2.17787 8.77621 2 9.25011 2C9.72402 2 10.1337 2.17787 10.4792 2.5336L22.1189 14.5217C22.2575 14.664 22.3559 14.8182 22.4141 14.9842C22.4723 15.1502 22.5009 15.3281 22.5 15.5178C22.5 15.7075 22.4709 15.8854 22.4127 16.0514C22.3545 16.2174 22.2566 16.3715 22.1189 16.5138L10.4446 28.502C10.1212 28.834 9.72262 29 9.24872 29C8.77482 29 8.36512 28.8221 8.01963 28.4664Z" fill="#2CA54E"/>
</g>
</svg>
