<svg width="30" height="30" viewBox="0 0 30 30" fill="none" xmlns="http://www.w3.org/2000/svg">
<path d="M23.6443 10.3464C23.4071 10.1155 23.1263 10 22.8019 10C22.4775 10 22.197 10.1155 21.9605 10.3464L15.0119 17.1132L8.03953 10.3233C7.81818 10.1078 7.5415 10 7.20949 10C6.87747 10 6.59289 10.1155 6.35573 10.3464C6.11858 10.5774 6 10.8508 6 11.1667C6 11.4827 6.11858 11.7558 6.35573 11.9861L14.3478 19.7459C14.4427 19.8383 14.5455 19.9039 14.6561 19.9427C14.7668 19.9815 14.8854 20.0006 15.0119 20C15.1383 20 15.2569 19.9806 15.3676 19.9418C15.4783 19.903 15.581 19.8377 15.6759 19.7459L23.668 11.963C23.8893 11.7475 24 11.4818 24 11.1658C24 10.8499 23.8814 10.5768 23.6443 10.3464Z" fill="#2CA54E"/>
</svg>
