<svg width="30" height="30" viewBox="0 0 30 30" fill="none" xmlns="http://www.w3.org/2000/svg">
<path d="M21.9804 27.9664C22.3268 27.6107 22.5 27.1895 22.5 26.7028C22.5 26.2162 22.3268 25.7955 21.9804 25.4407L11.8303 15.0178L22.015 4.55929C22.3383 4.22727 22.5 3.81225 22.5 3.31423C22.5 2.81621 22.3268 2.38933 21.9804 2.0336C21.634 1.67787 21.2238 1.5 20.7499 1.5C20.276 1.5 19.8663 1.67787 19.5208 2.0336L7.88108 14.0217C7.74251 14.164 7.64413 14.3182 7.58593 14.4842C7.52773 14.6502 7.49909 14.8281 7.50002 15.0178C7.50002 15.2075 7.52912 15.3854 7.58732 15.5514C7.64551 15.7174 7.74344 15.8715 7.88108 16.0138L19.5554 28.002C19.8788 28.334 20.2774 28.5 20.7513 28.5C21.2252 28.5 21.6349 28.3221 21.9804 27.9664Z" fill="#2CA54E"/>
</svg>
