<svg width="26" height="26" viewBox="0 0 26 26" fill="none" xmlns="http://www.w3.org/2000/svg">
<g id="lock">
<path id="Vector" d="M19.5 8.66659H21.6667C21.954 8.66659 22.2295 8.78072 22.4327 8.98389C22.6359 9.18705 22.75 9.4626 22.75 9.74992V22.7499C22.75 23.0372 22.6359 23.3128 22.4327 23.516C22.2295 23.7191 21.954 23.8333 21.6667 23.8333H4.33333C4.04602 23.8333 3.77047 23.7191 3.5673 23.516C3.36414 23.3128 3.25 23.0372 3.25 22.7499V9.74992C3.25 9.4626 3.36414 9.18705 3.5673 8.98389C3.77047 8.78072 4.04602 8.66659 4.33333 8.66659H6.5V7.58325C6.5 5.85934 7.18482 4.20604 8.40381 2.98706C9.62279 1.76807 11.2761 1.08325 13 1.08325C14.7239 1.08325 16.3772 1.76807 17.5962 2.98706C18.8152 4.20604 19.5 5.85934 19.5 7.58325V8.66659ZM11.9167 17.0429V19.4999H14.0833V17.0429C14.4964 16.8044 14.8192 16.4363 15.0017 15.9957C15.1842 15.555 15.2162 15.0665 15.0927 14.6058C14.9693 14.1451 14.6973 13.738 14.3189 13.4477C13.9405 13.1573 13.4769 12.9999 13 12.9999C12.5231 12.9999 12.0595 13.1573 11.6811 13.4477C11.3027 13.738 11.0307 14.1451 10.9073 14.6058C10.7838 15.0665 10.8158 15.555 10.9983 15.9957C11.1808 16.4363 11.5036 16.8044 11.9167 17.0429ZM17.3333 8.66659V7.58325C17.3333 6.43398 16.8768 5.33178 16.0641 4.51912C15.2515 3.70646 14.1493 3.24992 13 3.24992C11.8507 3.24992 10.7485 3.70646 9.93587 4.51912C9.12321 5.33178 8.66667 6.43398 8.66667 7.58325V8.66659H17.3333Z" fill="#727272"/>
</g>
</svg>
