<svg width="16" height="12" viewBox="0 0 16 12" fill="none" xmlns="http://www.w3.org/2000/svg">
<path id="check-icon" d="M4.94964 9.72643L1.6133 6.38645C1.52606 6.29805 1.42215 6.22786 1.30761 6.17996C1.19307 6.13205 1.07017 6.10738 0.946032 6.10738C0.821897 6.10738 0.698995 6.13205 0.584454 6.17996C0.469912 6.22786 0.366008 6.29805 0.278765 6.38645C0.190457 6.47379 0.120345 6.57781 0.0724925 6.69248C0.0246403 6.80714 0 6.93018 0 7.05445C0 7.17872 0.0246403 7.30175 0.0724925 7.41642C0.120345 7.53109 0.190457 7.63511 0.278765 7.72244L4.27284 11.7209C4.6446 12.093 5.24514 12.093 5.6169 11.7209L15.7212 1.61506C15.8095 1.52772 15.8797 1.4237 15.9275 1.30904C15.9754 1.19437 16 1.07133 16 0.947064C16 0.822793 15.9754 0.699758 15.9275 0.585091C15.8797 0.470425 15.8095 0.366407 15.7212 0.279069C15.634 0.190665 15.5301 0.120476 15.4155 0.0725714C15.301 0.024667 15.1781 0 15.054 0C14.9298 0 14.8069 0.024667 14.6924 0.0725714C14.5778 0.120476 14.4739 0.190665 14.3867 0.279069L4.94964 9.72643Z" fill="#2CA54E"/>
</svg>
