<svg width="119" height="34" viewBox="0 0 119 34" fill="none" xmlns="http://www.w3.org/2000/svg">
<g id="discount-text">
<path d="M14.9861 16.9137V20.5934H0V16.9137H14.9861Z" fill="white"/>
<path d="M47.3417 33.4386H21.1474V30.8859C21.1474 29.46 21.4694 28.1415 22.1133 26.9303C22.7572 25.7037 23.6311 24.6688 24.735 23.8256C26.8662 22.1698 29.4802 20.7516 32.5772 19.571C35.4903 18.4518 38.1043 17.1409 40.4194 15.6384C41.5233 14.9178 42.3896 14.0516 43.0182 13.0397C43.6621 12.0124 43.9841 10.9009 43.9841 9.70502C43.9841 7.48191 43.1408 5.78008 41.4543 4.59953C39.7372 3.41899 37.4757 2.82871 34.67 2.82871C31.8337 2.82871 29.5722 3.44965 27.8857 4.69152C26.1839 5.9334 25.333 7.74255 25.333 10.119V11.0619H22.2283V10.119C22.2283 6.91463 23.3705 4.42322 25.6549 2.64473C27.924 0.881577 30.9291 0 34.67 0C38.411 0 41.416 0.85858 43.6851 2.57574C45.9542 4.2929 47.0888 6.66932 47.0888 9.70502C47.0888 11.3455 46.6825 12.848 45.8699 14.2126C45.0726 15.5771 43.9841 16.7193 42.6042 17.6392C40.4884 19.0497 37.3914 20.6136 33.3132 22.3307C32.2399 22.7754 31.3047 23.1893 30.5075 23.5726C29.7255 23.9559 28.9206 24.4159 28.0927 24.9525C27.2801 25.4737 26.6132 26.0027 26.0919 26.5393C25.5706 27.0759 25.149 27.6969 24.827 28.4021C24.5051 29.092 24.3441 29.828 24.3441 30.6099H47.3417V33.4386Z" fill="white"/>
<path d="M67.1427 11.5908C70.8684 11.5908 73.8887 12.5874 76.2038 14.5805C78.5189 16.5737 79.6765 19.295 79.6765 22.7447C79.6765 26.1943 78.5189 28.9157 76.2038 30.9089C73.8887 32.902 70.8224 33.8986 67.0048 33.8986C64.843 33.8986 62.8958 33.5919 61.1633 32.9787C59.4462 32.3501 58.1123 31.5145 57.1617 30.4719C55.3066 28.4634 54.379 26.3783 54.379 24.2165H57.4837C57.4837 25.5964 58.1277 27.0223 59.4155 28.4941C60.0901 29.276 61.0943 29.9046 62.4282 30.3799C63.7774 30.8552 65.3029 31.0928 67.0048 31.0928C69.8871 31.0928 72.2022 30.3569 73.9501 28.8851C75.6979 27.4439 76.5718 25.3971 76.5718 22.7447C76.5718 20.0923 75.6979 18.0378 73.9501 16.5813C72.1869 15.1401 69.8258 14.4195 66.8668 14.4195C65.5329 14.4195 64.291 14.5729 63.1411 14.8795C62.0066 15.1708 61.1173 15.5541 60.4734 16.0294C59.1395 17.0259 58.3346 17.8692 58.0587 18.5591L57.8287 19.0191H54.724V0.459953H77.4227V3.28867H57.8287V14.7875H57.9207C58.0893 14.5115 58.5263 14.1359 59.2315 13.6606C59.7375 13.3233 60.3278 13.0013 61.0024 12.6947C62.7195 11.9588 64.7663 11.5908 67.1427 11.5908Z" fill="white"/>
<path d="M92.1872 33.4386H88.9445L111.551 0.459953H114.794L92.1872 33.4386ZM92.1412 0C94.3336 0 96.0891 0.682264 97.4077 2.04679C98.7262 3.41132 99.3855 5.22047 99.3855 7.47424C99.3855 9.74334 98.7262 11.5602 97.4077 12.9247C96.0891 14.2892 94.3336 14.9715 92.1412 14.9715C89.9181 14.9715 88.1473 14.2892 86.8287 12.9247C85.4949 11.5755 84.8279 9.75868 84.8279 7.47424C84.8279 5.22047 85.4949 3.41132 86.8287 2.04679C88.1473 0.682264 89.9181 0 92.1412 0ZM95.4069 11.1079C96.2348 10.1726 96.6488 8.96142 96.6488 7.47424C96.6488 5.98706 96.2348 4.77585 95.4069 3.84061C94.579 2.90537 93.4904 2.43775 92.1412 2.43775C90.7613 2.43775 89.6575 2.90537 88.8295 3.84061C87.9863 4.77585 87.5647 5.98706 87.5647 7.47424C87.5647 8.96142 87.9863 10.1726 88.8295 11.1079C89.6575 12.0584 90.7613 12.5337 92.1412 12.5337C93.4904 12.5337 94.579 12.0584 95.4069 11.1079ZM111.597 33.8986C109.405 33.8986 107.649 33.2163 106.331 31.8518C104.997 30.4872 104.33 28.6704 104.33 26.4013C104.33 24.1476 104.989 22.3384 106.308 20.9739C107.626 19.6093 109.389 18.9271 111.597 18.9271C113.82 18.9271 115.591 19.6093 116.91 20.9739C118.228 22.3384 118.887 24.1476 118.887 26.4013C118.887 28.6704 118.228 30.4872 116.91 31.8518C115.591 33.2163 113.82 33.8986 111.597 33.8986ZM108.332 22.7907C107.488 23.7259 107.067 24.9371 107.067 26.4243C107.067 27.8962 107.488 29.0997 108.332 30.035C109.159 30.9855 110.248 31.4608 111.597 31.4608C112.977 31.4608 114.081 30.9855 114.909 30.035C115.737 29.0844 116.151 27.8808 116.151 26.4243C116.151 24.9371 115.737 23.7259 114.909 22.7907C114.081 21.8554 112.977 21.3878 111.597 21.3878C110.248 21.3878 109.159 21.8554 108.332 22.7907Z" fill="white"/>
</g>
</svg>
