<svg width="216" height="96" viewBox="0 0 216 96" fill="none" xmlns="http://www.w3.org/2000/svg">
<g id="logo" clip-path="url(#clip0_523_6387)">
<g id="&#208;&#161;&#208;&#187;&#208;&#190;&#208;&#185; 1">
<path id="Vector" d="M117.144 60.376C117.048 60.4394 116.959 60.5142 116.879 60.599C116.946 60.5226 117.02 60.4521 117.098 60.388L117.144 60.376Z" fill="#2CA54E"/>
<path id="Vector_2" d="M167.558 82.7654L168.634 81.3853V83.1752L167.558 82.7654Z" fill="#2CA54E"/>
<path id="Vector_3" d="M213.124 59.8395H145.026L202.303 14.3497C202.605 14.1122 202.86 13.8148 203.052 13.4743C203.245 13.1338 203.371 12.7569 203.425 12.3651C203.478 11.9734 203.458 11.5745 203.364 11.1911C203.27 10.8078 203.105 10.4475 202.879 10.131L196.396 1.20535C196.169 0.888772 195.885 0.62206 195.56 0.420442C195.235 0.218825 194.875 0.0862495 194.501 0.030286C194.127 -0.0256775 193.747 -0.00393319 193.381 0.0942774C193.015 0.192488 192.671 0.365241 192.369 0.602674L117.184 60.3217L117.098 60.394C112.116 62.3768 109.562 69.4703 109.562 77.9198C109.562 86.3693 112.133 93.5049 117.144 95.4576C118.034 95.8152 118.98 95.999 119.933 96H213.124C213.887 96 214.618 95.6825 215.158 95.1174C215.697 94.5523 216 93.7858 216 92.9866V62.8529C216 62.0537 215.697 61.2873 215.158 60.7221C214.618 60.157 213.887 59.8395 213.124 59.8395ZM143.358 83.0124C142.581 84.2243 141.495 85.1829 140.222 85.7786C138.735 86.4622 137.123 86.7975 135.5 86.761C133.642 86.8174 131.802 86.3733 130.156 85.4713C128.687 84.6262 127.502 83.3279 126.762 81.7528C125.945 79.9282 125.55 77.9273 125.611 75.9129C125.611 72.5218 126.457 69.8399 128.148 67.8672C129.839 65.8944 132.261 64.7775 135.413 64.5163L138.572 64.227C139.411 64.1487 140.096 64.0643 140.631 63.9799C141.166 63.8955 141.62 63.7991 142 63.7027C142.368 63.6082 142.731 63.4935 143.087 63.3592V66.5654C142.632 66.7537 142.16 66.8949 141.678 66.9873C140.94 67.1354 140.195 67.236 139.446 67.2886C138.545 67.3649 137.44 67.4433 136.132 67.5236C133.663 67.6562 131.803 68.4276 130.553 69.8379C129.302 71.2482 128.677 73.2571 128.677 75.8646V76.0635C129.046 75.1633 129.575 74.3451 130.236 73.6528C131.02 72.8551 131.954 72.239 132.98 71.8448C134.103 71.4109 135.292 71.1944 136.489 71.206C137.942 71.1714 139.381 71.4999 140.688 72.1642C141.845 72.7602 142.817 73.6881 143.49 74.8401C144.168 76.0914 144.515 77.5093 144.496 78.9478C144.476 80.3863 144.091 81.7935 143.381 83.0244L143.358 83.0124ZM155.438 87.5144C155.059 88.3835 154.53 89.1721 153.879 89.8407C153.316 90.4065 152.648 90.8455 151.917 91.1304C151.179 91.4047 150.4 91.5413 149.616 91.5342C148.77 91.545 147.926 91.4232 147.114 91.1726C146.382 90.9346 145.682 90.5983 145.032 90.1721V87.3094C145.655 87.7343 146.328 88.0745 147.033 88.3219C147.727 88.5432 148.449 88.6509 149.173 88.6413C149.878 88.6539 150.573 88.4687 151.187 88.105C151.851 87.659 152.364 87.0053 152.654 86.2367L152.826 85.8329H151.405L144.226 69.9826H148.172L153.925 83.3438L159.712 69.9826H163.52L155.438 87.5144ZM177.942 86.3572L173.846 79.553L168.358 86.3331H165.044V69.9826H168.634V81.361L177.527 69.9584H181.612L176.118 76.7446L182.106 86.3331L177.942 86.3572ZM186.047 81.1742C186.483 82.012 187.151 82.6925 187.962 83.1269C188.984 83.6337 190.111 83.8639 191.239 83.7965C192.368 83.7291 193.462 83.3663 194.422 82.7412C195.363 82.0833 196.018 81.0633 196.246 79.9026H199.864C199.694 81.2213 199.167 82.4614 198.346 83.4764C197.484 84.5312 196.395 85.3573 195.17 85.8871C193.806 86.4811 192.339 86.7765 190.862 86.755C189.215 86.7906 187.583 86.4189 186.099 85.6702C184.76 84.9804 183.633 83.9116 182.844 82.5849C182.056 81.2582 181.638 79.7267 181.638 78.1639C181.638 76.6011 182.056 75.0695 182.844 73.7428C183.633 72.4161 184.76 71.3473 186.099 70.6575C187.583 69.9088 189.215 69.5371 190.862 69.5727C192.339 69.5512 193.806 69.8466 195.17 70.4406C196.396 70.97 197.484 71.7961 198.346 72.8513C199.171 73.8797 199.699 75.1346 199.864 76.4673H196.217C195.992 75.2848 195.328 74.2443 194.371 73.5745C193.41 72.96 192.319 72.6052 191.196 72.5421C190.072 72.4789 188.951 72.7095 187.934 73.2129C187.124 73.6447 186.457 74.3206 186.018 75.1535C185.571 76.0891 185.339 77.1208 185.339 78.1669C185.339 79.2129 185.571 80.2446 186.018 81.1802L186.047 81.1742ZM138.359 74.6111C137.489 74.1888 136.538 73.9825 135.58 74.0084C134.225 73.9793 132.896 74.4014 131.784 75.2138C130.652 76.071 129.801 77.2726 129.345 78.655C129.601 80.1383 130.361 81.4742 131.484 82.4157C132.656 83.3596 134.103 83.8494 135.58 83.8019C136.539 83.8309 137.49 83.6245 138.359 83.1992C139.111 82.8218 139.744 82.2255 140.182 81.4816C140.623 80.6974 140.846 79.7999 140.827 78.8901C140.846 77.9859 140.623 77.0942 140.182 76.3167C139.742 75.5776 139.109 74.9858 138.359 74.6111Z" fill="#2CA54E"/>
<path id="Vector_4" d="M167.558 82.7654L168.634 83.1752V81.3672L167.558 82.7654Z" fill="white"/>
<path id="Vector_5" d="M38.3403 56.0005V90.3529H32.5878V61.3583H14.5653C14.711 63.11 14.8261 64.7915 14.9104 66.4026C15.0255 68.6265 15.083 70.7238 15.083 72.6765C15.163 76.1906 14.8111 79.7008 14.0361 83.1208C13.3343 85.8027 12.247 87.7855 10.7744 89.0512C9.13156 90.3768 7.09337 91.0495 5.02192 90.9496C4.12469 90.9513 3.22986 90.8523 2.35277 90.6543C1.53297 90.4722 0.741197 90.172 0 89.7623L0 84.6275C1.09099 85.1211 2.26334 85.3872 3.45149 85.411C4.45404 85.4454 5.44248 85.1563 6.28306 84.5829C7.12365 84.0094 7.7758 83.1793 8.15127 82.2048C9.12919 80.0633 9.61815 76.5959 9.61815 71.8026C9.61815 69.7294 9.54529 67.3569 9.39956 64.685C9.25383 62.0132 9.01989 59.1183 8.69775 56.0005H38.3403Z" fill="#2CA54E"/>
<path id="Vector_6" d="M72.7921 64.4319H66.9361L66.2976 70.8022C66.1902 70.6053 66.0752 70.4044 65.9524 70.1995C64.7377 68.252 63.1045 66.6297 61.1836 65.4625C59.2751 64.3217 57.1106 63.735 54.9134 63.7629C52.6611 63.7176 50.4389 64.311 48.4821 65.4805C46.631 66.6139 45.1172 68.2645 44.1103 70.2477C43.0771 72.4621 42.54 74.8944 42.54 77.3592C42.54 79.8241 43.0771 82.2564 44.1103 84.4708C45.1124 86.4623 46.6269 88.12 48.4821 89.256C50.4285 90.3749 52.6128 90.9615 54.8329 90.9615C57.053 90.9615 59.2373 90.3749 61.1836 89.256C63.1048 88.0849 64.7318 86.4506 65.9294 84.4889C66.056 84.29 66.1768 84.0851 66.2918 83.8862L66.9361 90.3107H72.7921L71.4806 77.3532L72.7921 64.4319ZM64.2037 81.9938C63.2267 83.2729 62.0137 84.3326 60.6371 85.1096C59.2916 85.8585 57.7889 86.2438 56.2653 86.2306C54.8239 86.2591 53.4029 85.8712 52.158 85.1096C50.9608 84.365 49.9849 83.2862 49.3393 81.9938C48.6621 80.5637 48.3097 78.9888 48.3097 77.3924C48.3097 75.7959 48.6621 74.2211 49.3393 72.791C49.9849 71.4986 50.9608 70.4198 52.158 69.6752C53.4029 68.9136 54.8239 68.5257 56.2653 68.5542C57.7889 68.541 59.2916 68.9263 60.6371 69.6752C62.0137 70.4522 63.2267 71.5119 64.2037 72.791C65.265 74.1713 66.0991 75.7275 66.6715 77.3954C66.0978 79.0609 65.2638 80.6149 64.2037 81.9938Z" fill="#2CA54E"/>
<path id="Vector_7" d="M101.687 78.3115C100.639 77.5504 99.4453 77.0363 98.1892 76.8048C98.9725 76.5081 99.7048 76.0807 100.358 75.5392C101.014 74.9989 101.54 74.3044 101.893 73.5119C102.245 72.7193 102.415 71.851 102.389 70.9769C102.432 70.0631 102.271 69.1512 101.919 68.3141C101.566 67.477 101.032 66.7378 100.358 66.1555C99.0003 64.9944 97.1269 64.4138 94.7377 64.4138H76.813L78.0785 77.3773L76.813 90.3348H95.3072C98.0147 90.3348 100.135 89.702 101.669 88.4364C102.423 87.8172 103.025 87.0184 103.426 86.1065C103.826 85.1946 104.013 84.1959 103.97 83.1931C104.008 82.2446 103.819 81.3013 103.42 80.4488C103.021 79.5963 102.425 78.8616 101.687 78.3115ZM92.7704 68.5542C94.1663 68.5542 95.1653 68.8676 95.7674 69.4944C96.0654 69.8111 96.2982 70.1884 96.4515 70.603C96.6049 71.0176 96.6755 71.4607 96.6591 71.9051C96.6739 72.3672 96.5896 72.8269 96.4124 73.2504C96.2352 73.6738 95.9696 74.0502 95.6351 74.3519C94.9525 74.9787 93.8672 75.2921 92.3792 75.2921H83.319L82.6 68.5602L92.7704 68.5542ZM97.217 85.2905C96.5325 85.8931 95.4223 86.2306 93.8749 86.2306H82.6057L83.3593 79.1311H93.1903C94.9966 79.1311 96.2871 79.4686 97.0617 80.1436C97.4263 80.4418 97.72 80.8244 97.9196 81.2615C98.1193 81.6986 98.2194 82.1783 98.2122 82.6628C98.2427 83.1507 98.1692 83.6396 97.9971 84.0941C97.825 84.5485 97.5585 84.9572 97.217 85.2905Z" fill="#2CA54E"/>
</g>
</g>
<defs>
<clipPath id="clip0_523_6387">
<rect width="216" height="96" fill="white"/>
</clipPath>
</defs>
</svg>
