<svg xmlns="http://www.w3.org/2000/svg" viewBox="0 0 504.17 68"><defs><style>.cls-1{fill:#494949;}.cls-2{fill:#ce0000;}.cls-3{fill:#898989;}.cls-4{fill:#3572ed;}</style></defs><g id="Слой_2" data-name="Слой 2"><g id="Слой_1-2" data-name="Слой 1"><path class="cls-1" d="M97.85,20H1a1,1,0,0,1-1-1V1A1,1,0,0,1,1,0H82.68a1,1,0,0,1,.76.36l15.17,18A1,1,0,0,1,97.85,20Z"/><path class="cls-2" d="M87.68,0H494.17a10,10,0,0,1,10,10h0a10,10,0,0,1-10,10H102.85a1,1,0,0,1-.77-.36l-15.17-18A1,1,0,0,1,87.68,0Z"/><path class="cls-3" d="M17.87,10h-6a2,2,0,0,1-2-2V0h10V8A2,2,0,0,1,17.87,10Z"/><path class="cls-3" d="M37.07,10h-6a2,2,0,0,1-2-2V0h10V8A2,2,0,0,1,37.07,10Z"/><path class="cls-3" d="M56.27,10h-6a2,2,0,0,1-2-2V0h10V8A2,2,0,0,1,56.27,10Z"/><path class="cls-3" d="M75.47,10h-6a2,2,0,0,1-2-2V0h10V8A2,2,0,0,1,75.47,10Z"/><path class="cls-1" d="M406.32,68h96.85a1,1,0,0,0,1-1V49a1,1,0,0,0-1-1H421.49a1,1,0,0,0-.76.36l-15.17,18A1,1,0,0,0,406.32,68Z"/><path class="cls-4" d="M416.49,48H10A10,10,0,0,0,0,58H0A10,10,0,0,0,10,68H401.32a1,1,0,0,0,.77-.36l15.17-18A1,1,0,0,0,416.49,48Z"/><path class="cls-3" d="M486.3,58h6a2,2,0,0,0,2-2V48h-10v8A2,2,0,0,0,486.3,58Z"/><path class="cls-3" d="M467.1,58h6a2,2,0,0,0,2-2V48h-10v8A2,2,0,0,0,467.1,58Z"/><path class="cls-3" d="M447.9,58h6a2,2,0,0,0,2-2V48h-10v8A2,2,0,0,0,447.9,58Z"/><path class="cls-3" d="M428.7,58h6a2,2,0,0,0,2-2V48h-10v8A2,2,0,0,0,428.7,58Z"/></g></g></svg>