<svg xmlns="http://www.w3.org/2000/svg" viewBox="0 0 375.49 159.29"><defs><style>.cls-1{fill:#55c663;}.cls-2{fill:#fff;}</style></defs><g id="Слой_2" data-name="Слой 2"><g id="Слой_1-2" data-name="Слой 1"><path class="cls-1" d="M203.64,100.18a2.57,2.57,0,0,0-.46.37,3.22,3.22,0,0,1,.38-.35Z"/><polygon class="cls-1" points="291.28 137.33 293.15 135.04 293.15 138.01 291.28 137.33"/><path class="cls-1" d="M370.49,99.29H252.11l99.57-75.48a5,5,0,0,0,1-7L341.41,2a5,5,0,0,0-7-1L203.71,100.09l-.15.12c-8.66,3.29-13.1,15.06-13.1,29.08s4.47,25.86,13.18,29.1a13.59,13.59,0,0,0,4.85.9h162a5,5,0,0,0,5-5v-50A5,5,0,0,0,370.49,99.29ZM249.21,137.74a12.91,12.91,0,0,1-5.45,4.59,19.4,19.4,0,0,1-8.21,1.63,18.87,18.87,0,0,1-9.29-2.14,14.19,14.19,0,0,1-5.9-6.17,21.23,21.23,0,0,1-2-9.69q0-8.44,4.41-13.35t12.63-5.56l5.49-.48c1.46-.13,2.65-.27,3.58-.41s1.72-.3,2.38-.46a18.84,18.84,0,0,0,1.89-.57v5.32a13.1,13.1,0,0,1-2.45.7,31.94,31.94,0,0,1-3.88.5q-2.35.19-5.76.39-6.44.33-9.7,3.84t-3.26,10v.33a12.76,12.76,0,0,1,2.71-4,13.53,13.53,0,0,1,4.77-3,17.17,17.17,0,0,1,6.1-1.06,15.9,15.9,0,0,1,7.3,1.59,11.83,11.83,0,0,1,4.87,4.44,13.43,13.43,0,0,1-.19,13.58Zm21,7.47a12.91,12.91,0,0,1-2.71,3.86,9.92,9.92,0,0,1-3.41,2.14,11.67,11.67,0,0,1-4,.67,14.76,14.76,0,0,1-4.35-.6,15.45,15.45,0,0,1-3.62-1.66v-4.75a15.28,15.28,0,0,0,3.48,1.68,12.24,12.24,0,0,0,3.72.53,6.87,6.87,0,0,0,3.5-.89,6.53,6.53,0,0,0,2.55-3.1l.3-.67H263.2l-12.48-26.3h6.86l10,22.17,10.06-22.17h6.62Zm39.12-1.92L302.21,132l-9.54,11.25h-5.76V116.12h6.24V135l15.46-18.92h7.1l-9.55,11.26,10.41,15.91Zm14.09-8.6a7.88,7.88,0,0,0,3.33,3.24,11.75,11.75,0,0,0,11.23-.64,7.47,7.47,0,0,0,3.17-4.71h6.29a11.57,11.57,0,0,1-2.64,5.93,14.6,14.6,0,0,1-5.52,4,18.84,18.84,0,0,1-7.49,1.44,18.22,18.22,0,0,1-8.28-1.8,13.88,13.88,0,0,1,0-24.91,18.22,18.22,0,0,1,8.28-1.8,18.84,18.84,0,0,1,7.49,1.44,14.58,14.58,0,0,1,5.52,4,11.66,11.66,0,0,1,2.64,6H341.1a7.55,7.55,0,0,0-3.21-4.8,11.8,11.8,0,0,0-11.19-.6,7.9,7.9,0,0,0-3.33,3.22,11.18,11.18,0,0,0,0,10ZM240.52,123.8a10.82,10.82,0,0,0-4.83-1,11.14,11.14,0,0,0-6.6,2,11.81,11.81,0,0,0-4.24,5.71,10.35,10.35,0,0,0,3.72,6.24,11.12,11.12,0,0,0,7.12,2.3,10.68,10.68,0,0,0,4.83-1,7.56,7.56,0,0,0,3.17-2.85,8.11,8.11,0,0,0,1.12-4.3,8,8,0,0,0-1.12-4.27A7.58,7.58,0,0,0,240.52,123.8Z"/><path class="cls-2" d="M291.28,137.33l1.87.68v-3Z"/><path class="cls-1" d="M66.65,92.92v57h-10V101.81H25.32q.38,4.36.6,8.37c.2,3.69.3,7.17.3,10.41a68,68,0,0,1-1.82,17.33c-1.22,4.45-3.11,7.74-5.67,9.84a15.24,15.24,0,0,1-10,3.15,21.83,21.83,0,0,1-4.64-.49A15.78,15.78,0,0,1,0,148.94v-8.52a15.9,15.9,0,0,0,6,1.3,8.51,8.51,0,0,0,8.17-5.32q2.55-5.33,2.55-17.26,0-5.16-.38-11.81T15.12,92.92Z"/><path class="cls-1" d="M126.54,106.91H116.36l-1.11,10.57q-.28-.49-.6-1a24.72,24.72,0,0,0-8.29-7.86,21.47,21.47,0,0,0-10.9-2.82,21.72,21.72,0,0,0-11.18,2.85,20.09,20.09,0,0,0-7.6,7.91,26.87,26.87,0,0,0,0,23.6,20,20,0,0,0,7.6,7.94,22.95,22.95,0,0,0,22.08,0,24.3,24.3,0,0,0,8.25-7.91c.22-.33.43-.67.63-1l1.12,10.66h10.18l-2.28-21.5Zm-14.93,29.14a20.23,20.23,0,0,1-6.2,5.17,15.92,15.92,0,0,1-7.6,1.86,13.65,13.65,0,0,1-7.14-1.86,13.05,13.05,0,0,1-4.9-5.17,17.18,17.18,0,0,1,0-15.27,13.05,13.05,0,0,1,4.9-5.17,13.65,13.65,0,0,1,7.14-1.86,15.92,15.92,0,0,1,7.6,1.86,20.23,20.23,0,0,1,6.2,5.17,26.44,26.44,0,0,1,4.29,7.64A26.51,26.51,0,0,1,111.61,136.05Z"/><path class="cls-1" d="M176.77,129.94a15.34,15.34,0,0,0-6.08-2.5,13.44,13.44,0,0,0,3.77-2.1,9.25,9.25,0,0,0,3.53-7.57,9.74,9.74,0,0,0-3.53-8q-3.54-2.89-9.77-2.89H133.53l2.2,21.51-2.2,21.5h32.15q7.06,0,11.06-3.15a10.47,10.47,0,0,0,4-8.7A9.46,9.46,0,0,0,176.77,129.94Zm-15.5-16.19q3.64,0,5.21,1.56a5.4,5.4,0,0,1,1.55,4,5.13,5.13,0,0,1-1.78,4.06q-1.78,1.56-5.66,1.56H144.84l-1.25-11.17ZM169,141.52c-1.19,1-3.12,1.56-5.81,1.56H143.6l1.31-11.78H162q4.71,0,6.73,1.68a5.2,5.2,0,0,1,2,4.18A5.47,5.47,0,0,1,169,141.52Z"/></g></g></svg>