<svg width="26" height="26" viewBox="0 0 26 26" fill="none" xmlns="http://www.w3.org/2000/svg">
<g id="&#209;&#130;&#208;&#181;&#208;&#187;&#208;&#181;&#209;&#132;&#208;&#190;&#208;&#189;">
<path id="Vector" d="M17.7822 11.9244L15.8267 9.96889C15.5778 9.72 15.5067 9.37333 15.6044 9.06222C15.9333 8.06667 16.1111 7 16.1111 5.88889C16.1111 5.4 16.5111 5 17 5H20.1111C20.6 5 21 5.4 21 5.88889C21 14.2356 14.2356 21 5.88889 21C5.4 21 5 20.6 5 20.1111V17.0089C5 16.52 5.4 16.12 5.88889 16.12C6.99111 16.12 8.06667 15.9422 9.06222 15.6133C9.37333 15.5067 9.72889 15.5867 9.96889 15.8267L11.9244 17.7822C14.44 16.4933 16.5022 14.44 17.7822 11.9244Z" fill="#727272"/>
</g>
</svg>
