<svg width="16" height="18" viewBox="0 0 16 18" fill="none" xmlns="http://www.w3.org/2000/svg">
<path d="M9.97141 11.1647H0.962891V8.93177H9.93732C10.7101 8.93177 11.3493 8.80393 11.8549 8.54825C12.3606 8.28689 12.7356 7.92893 12.9799 7.47439C13.2243 7.01416 13.3464 6.48575 13.3464 5.88916C13.3464 5.29825 13.2243 4.76984 12.9799 4.30393C12.7356 3.83802 12.3635 3.47155 11.8635 3.2045C11.3635 2.93177 10.7328 2.79541 9.97141 2.79541H6.2555V18H3.6305V0.54541H9.97141C11.2953 0.54541 12.4004 0.784047 13.2868 1.26132C14.1788 1.73859 14.8464 2.38064 15.2896 3.18746C15.7385 3.99427 15.9629 4.892 15.9629 5.88064C15.9629 6.88064 15.7356 7.78121 15.2811 8.58234C14.8322 9.3778 14.1618 10.0085 13.2697 10.4744C12.3833 10.9346 11.2839 11.1647 9.97141 11.1647ZM10.0993 12.6306V14.8721H0.962891V12.6306H10.0993Z" fill="#303030"/>
</svg>
