<svg width="30" height="30" viewBox="0 0 30 30" fill="none" xmlns="http://www.w3.org/2000/svg">
<g id="&#208;&#186;&#208;&#190;&#209;&#128;&#208;&#183;&#208;&#184;&#208;&#189;&#208;&#176;">
<path id="Vector" d="M28.5 12.6831V13.4599C28.5 14.1034 27.9823 14.6251 27.3437 14.6251H26.9583L25.7003 23.4992C25.5375 24.6472 24.5619 25.5 23.4111 25.5H5.83895C4.68814 25.5 3.71246 24.6472 3.54967 23.4992L2.29167 14.6251H1.90625C1.26766 14.6251 0.75 14.1034 0.75 13.4599V12.6831C0.75 12.0396 1.26766 11.5179 1.90625 11.5179H5.15054L10.2949 4.38996C10.7957 3.6961 11.7598 3.54264 12.4485 4.0473C13.1371 4.55197 13.2893 5.52358 12.7885 6.21748L8.96308 11.5179H20.2869L16.4615 6.21744C15.9607 5.52358 16.113 4.55192 16.8016 4.04726C17.4901 3.54259 18.4544 3.69601 18.9552 4.38991L24.0995 11.5179H27.3437C27.9823 11.5179 28.5 12.0396 28.5 12.6831ZM15.7812 21.2277V15.7902C15.7812 15.1467 15.2636 14.6251 14.625 14.6251C13.9864 14.6251 13.4687 15.1467 13.4687 15.7902V21.2277C13.4687 21.8712 13.9864 22.3929 14.625 22.3929C15.2636 22.3929 15.7812 21.8712 15.7812 21.2277ZM21.1771 21.2277V15.7902C21.1771 15.1467 20.6594 14.6251 20.0208 14.6251C19.3822 14.6251 18.8646 15.1467 18.8646 15.7902V21.2277C18.8646 21.8712 19.3822 22.3929 20.0208 22.3929C20.6594 22.3929 21.1771 21.8712 21.1771 21.2277ZM10.3854 21.2277V15.7902C10.3854 15.1467 9.86775 14.6251 9.22917 14.6251C8.59058 14.6251 8.07292 15.1467 8.07292 15.7902V21.2277C8.07292 21.8712 8.59058 22.3929 9.22917 22.3929C9.86775 22.3929 10.3854 21.8712 10.3854 21.2277Z" fill="#2CA54E"/>
</g>
</svg>
