<svg width="40" height="40" viewBox="0 0 40 40" fill="none" xmlns="http://www.w3.org/2000/svg">
<rect width="40" height="40" rx="5" fill="#DEFFDD"/>
<path d="M18.803 29.9924L18.8008 29.9905C14.9075 26.6557 11.8008 23.9873 9.64992 21.5016C7.51229 19.0312 6.5 16.942 6.5 14.7929C6.5 11.3243 9.37489 8.5 13.25 8.5C15.1041 8.5 16.9053 9.19714 18.2385 10.3276C19.2482 11.1837 20.7518 11.1837 21.7615 10.3276C23.0947 9.19714 24.8959 8.5 26.75 8.5C30.6251 8.5 33.5 11.3243 33.5 14.7929C33.5 16.942 32.4877 19.0312 30.3501 21.5016C28.1992 23.9873 25.0925 26.6557 21.1992 29.9905L21.197 29.9924L20 31.0217L18.803 29.9924Z" fill="#2CA54E" stroke="#2CA54E" stroke-width="3"/>
</svg>
