<svg width="40" height="40" viewBox="0 0 40 40" fill="none" xmlns="http://www.w3.org/2000/svg">
<g id="shop-cart">
<path id="Vector" d="M14.7979 27.8C13.3682 27.8 12.2116 28.97 12.2116 30.4C12.2116 31.83 13.3682 33 14.7979 33C16.2275 33 17.3971 31.83 17.3971 30.4C17.3971 28.97 16.2275 27.8 14.7979 27.8ZM7 8.3C7 9.015 7.58484 9.6 8.29964 9.6H9.59928L14.278 19.467L12.5235 22.639C11.5747 24.381 12.8224 26.5 14.7979 26.5H29.0939C29.8087 26.5 30.3936 25.915 30.3936 25.2C30.3936 24.485 29.8087 23.9 29.0939 23.9H14.7979L16.2275 21.3H25.9098C26.8845 21.3 27.7423 20.767 28.1842 19.961L32.8369 11.524C32.9464 11.327 33.0026 11.1047 32.9999 10.8793C32.9972 10.6538 32.9357 10.433 32.8215 10.2386C32.7073 10.0443 32.5443 9.88312 32.3487 9.7711C32.1531 9.65909 31.9316 9.60011 31.7062 9.6H12.4715L11.6007 7.741C11.4963 7.5191 11.3308 7.33155 11.1236 7.20032C10.9165 7.06909 10.6763 6.99961 10.4311 7H8.29964C7.58484 7 7 7.585 7 8.3ZM27.7943 27.8C26.3647 27.8 25.208 28.97 25.208 30.4C25.208 31.83 26.3647 33 27.7943 33C29.2239 33 30.3936 31.83 30.3936 30.4C30.3936 28.97 29.2239 27.8 27.7943 27.8Z" fill="white"/>
</g>
</svg>
