<svg width="60" height="60" viewBox="0 0 60 60" fill="none" xmlns="http://www.w3.org/2000/svg">
<rect width="60" height="60" rx="10" fill="#2CA54E"/>
<path fill-rule="evenodd" clip-rule="evenodd" d="M14.5387 27.7029C24.1888 23.0068 30.6394 19.9715 33.8389 18.4825C43.0246 14.2445 44.9339 13.5 46.1725 13.5C46.4305 13.5 47.0497 13.5573 47.4626 13.9009C47.7722 14.1872 47.8754 14.5881 47.927 14.8745C47.9786 15.1608 48.0302 15.7908 47.9786 16.3062C47.4626 22.0904 45.3468 36.236 44.2115 42.7075C43.747 45.4564 42.8181 46.3727 41.9409 46.4873C40.0315 46.6591 38.5349 45.0555 36.6772 43.7383C33.7873 41.6194 32.1359 40.3022 29.2977 38.2405C26.0466 35.8351 28.1624 34.5179 30.0201 32.399C30.4846 31.8263 38.9994 23.2931 39.1542 22.4913C39.1542 22.3768 39.2058 22.0332 38.9994 21.8614C38.793 21.6896 38.5349 21.7468 38.3285 21.8041C38.0189 21.8614 33.3745 25.2975 24.3436 32.0553C23.0019 33.0862 21.815 33.5444 20.7313 33.5444C19.5444 33.5444 17.2738 32.7999 15.5708 32.1699C13.5066 31.4254 11.8553 31.0245 12.0101 29.7646C12.1649 29.0773 12.9906 28.3901 14.5387 27.7029Z" fill="white"/>
</svg>
