<svg width="60" height="61" viewBox="0 0 60 61" fill="none" xmlns="http://www.w3.org/2000/svg">
<g id="tg">
<rect y="0.5" width="60" height="60" rx="10" fill="#DEFFDD"/>
<path id="tg_2" fill-rule="evenodd" clip-rule="evenodd" d="M14.5387 28.2029C24.1888 23.5068 30.6394 20.4715 33.8389 18.9825C43.0246 14.7445 44.9339 14 46.1725 14C46.4305 14 47.0497 14.0573 47.4626 14.4009C47.7722 14.6872 47.8754 15.0881 47.927 15.3745C47.9786 15.6608 48.0302 16.2908 47.9786 16.8062C47.4626 22.5904 45.3468 36.736 44.2115 43.2075C43.747 45.9564 42.8181 46.8727 41.9409 46.9873C40.0315 47.1591 38.5349 45.5555 36.6772 44.2383C33.7873 42.1194 32.1359 40.8022 29.2977 38.7405C26.0466 36.3351 28.1624 35.0179 30.0201 32.899C30.4846 32.3263 38.9994 23.7931 39.1542 22.9913C39.1542 22.8768 39.2058 22.5332 38.9994 22.3614C38.793 22.1896 38.5349 22.2468 38.3285 22.3041C38.0189 22.3614 33.3745 25.7975 24.3436 32.5553C23.0019 33.5862 21.815 34.0444 20.7313 34.0444C19.5444 34.0444 17.2738 33.2999 15.5708 32.6699C13.5066 31.9254 11.8553 31.5245 12.0101 30.2646C12.1649 29.5773 12.9906 28.8901 14.5387 28.2029Z" fill="#2CA54E"/>
</g>
</svg>
