<svg width="82" height="108" viewBox="0 0 82 108" fill="none" xmlns="http://www.w3.org/2000/svg">
<path d="M56.1503 96.8186C61.8273 88.4358 65.1397 69.2675 65.3285 64.682C65.7609 54.179 61.1226 36.8442 56.1508 25.1248C51.1791 13.4054 46.5579 7.47105 38.381 1.16169C34.7475 -1.64192 22.0616 -6.57967 13.7764 -3.06478L33.6941 43.885L56.1503 96.8186Z" fill="#55C663"/>
<path d="M56.1503 96.8188C46.1774 95.0752 30.0924 84.136 26.6639 81.085C18.8111 74.0969 9.56988 58.7148 4.59811 46.9954C-0.373666 35.276 -1.42935 27.8291 -0.283564 17.5647C0.225576 13.0036 5.49111 0.450279 13.7764 -3.06461L33.6941 43.8852L56.1503 96.8188Z" fill="#2E7442"/>
<line x1="15.7013" y1="3.72231" x2="36.5203" y2="12.1387" stroke="#2E7442" stroke-width="3" stroke-linecap="round"/>
<line x1="27.4176" y1="31.34" x2="48.2366" y2="39.7563" stroke="#2E7442" stroke-width="3" stroke-linecap="round"/>
<line x1="39.1339" y1="58.9572" x2="59.9529" y2="67.3735" stroke="#2E7442" stroke-width="3" stroke-linecap="round"/>
<line x1="1.5" y1="-1.5" x2="23.9558" y2="-1.5" transform="matrix(-0.374796 0.927107 0.927107 0.374796 19.2719 2.20752)" stroke="#55C663" stroke-width="3" stroke-linecap="round"/>
<line x1="1.5" y1="-1.5" x2="23.9558" y2="-1.5" transform="matrix(-0.374796 0.927107 0.927107 0.374796 30.9882 29.8252)" stroke="#55C663" stroke-width="3" stroke-linecap="round"/>
<line x1="1.5" y1="-1.5" x2="23.9558" y2="-1.5" transform="matrix(-0.374796 0.927107 0.927107 0.374796 42.7045 57.4424)" stroke="#55C663" stroke-width="3" stroke-linecap="round"/>
</svg>
