<svg width="144" height="64" viewBox="0 0 144 64" fill="none" xmlns="http://www.w3.org/2000/svg">
<g id="logo-2" clip-path="url(#clip0_523_7821)">
<g id="&#208;&#161;&#208;&#187;&#208;&#190;&#208;&#185; 1">
<path id="Vector" d="M78.0958 40.2506C78.0317 40.2929 77.9724 40.3428 77.9192 40.3993C77.9642 40.3484 78.013 40.3014 78.0651 40.2586L78.0958 40.2506Z" fill="white"/>
<path id="Vector_2" d="M111.706 55.1768L112.423 54.2567V55.45L111.706 55.1768Z" fill="white"/>
<path id="Vector_3" d="M142.083 39.893H96.684L134.869 9.56645C135.07 9.40816 135.24 9.20985 135.368 8.98285C135.497 8.75584 135.581 8.50459 135.617 8.24342C135.652 7.98226 135.638 7.71631 135.576 7.46074C135.513 7.20518 135.404 6.96502 135.252 6.75397L130.93 0.803566C130.779 0.592514 130.59 0.414707 130.373 0.280295C130.157 0.145883 129.917 0.0574997 129.668 0.0201907C129.418 -0.0171183 129.164 -0.00262213 128.921 0.0628516C128.677 0.128325 128.447 0.243494 128.246 0.401783L78.1226 40.2144L78.0651 40.2627C74.744 41.5845 73.0413 46.3135 73.0413 51.9465C73.0413 57.5795 74.7555 62.3366 78.0958 63.6384C78.6895 63.8768 79.3199 63.9993 79.9557 64H142.083C142.591 64 143.079 63.7883 143.438 63.4116C143.798 63.0349 144 62.5239 144 61.9911V41.9019C144 41.3691 143.798 40.8582 143.438 40.4814C143.079 40.1047 142.591 39.893 142.083 39.893ZM95.5718 55.3416C95.0541 56.1495 94.3298 56.7886 93.4817 57.1858C92.4902 57.6415 91.4157 57.865 90.3332 57.8407C89.095 57.8783 87.8683 57.5822 86.7705 56.9809C85.7913 56.4174 85.0013 55.5519 84.5079 54.5018C83.9631 53.2855 83.7003 51.9515 83.7409 50.6086C83.7409 48.3479 84.3046 46.5599 85.4321 45.2448C86.5596 43.9296 88.1741 43.185 90.2757 43.0109L92.3811 42.818C92.941 42.7658 93.3974 42.7095 93.754 42.6533C94.1107 42.597 94.4137 42.5327 94.6668 42.4684C94.912 42.4054 95.154 42.329 95.3916 42.2394V44.3769C95.0878 44.5024 94.7732 44.5966 94.452 44.6582C93.9604 44.7569 93.4635 44.824 92.964 44.8591C92.3632 44.91 91.6269 44.9622 90.7551 45.0158C89.1086 45.1041 87.8686 45.6184 87.0351 46.5586C86.2017 47.4988 85.7849 48.838 85.7849 50.5764V50.709C86.0305 50.1089 86.3832 49.5634 86.8242 49.1019C87.3465 48.57 87.9697 48.1594 88.6535 47.8965C89.4022 47.6072 90.1949 47.4629 90.9928 47.4706C91.9612 47.4476 92.9209 47.6666 93.7924 48.1095C94.5636 48.5068 95.2113 49.1254 95.66 49.8934C96.1118 50.7276 96.3432 51.6728 96.3304 52.6319C96.3176 53.5909 96.0611 54.529 95.5872 55.3496L95.5718 55.3416ZM103.625 58.3429C103.373 58.9223 103.02 59.4481 102.586 59.8938C102.211 60.271 101.766 60.5636 101.278 60.7536C100.786 60.9364 100.267 61.0275 99.7443 61.0228C99.1798 61.03 98.6176 60.9488 98.0761 60.7817C97.5878 60.6231 97.1211 60.3989 96.6878 60.1147V58.2063C97.1036 58.4895 97.552 58.7164 98.0224 58.8813C98.4846 59.0288 98.9658 59.1006 99.449 59.0942C99.9188 59.1026 100.382 58.9791 100.791 58.7366C101.234 58.4393 101.576 58.0036 101.769 57.4911L101.884 57.2219H100.937L96.1509 46.655H98.7817L102.617 55.5625L106.475 46.655H109.013L103.625 58.3429ZM118.628 57.5715L115.897 53.0353L112.239 57.5554H110.03V46.655H112.423V54.2407L118.352 46.639H121.074L117.412 51.163L121.404 57.5554L118.628 57.5715ZM124.031 54.1161C124.322 54.6747 124.767 55.1283 125.308 55.4179C125.989 55.7558 126.741 55.9093 127.493 55.8643C128.245 55.8194 128.975 55.5775 129.615 55.1608C130.242 54.7222 130.679 54.0422 130.831 53.2684H133.243C133.129 54.1475 132.778 54.9742 132.23 55.6509C131.656 56.3542 130.93 56.9049 130.114 57.2581C129.204 57.6541 128.226 57.851 127.241 57.8366C126.143 57.8604 125.055 57.6126 124.066 57.1134C123.173 56.6536 122.422 55.9411 121.896 55.0566C121.371 54.1721 121.092 53.1511 121.092 52.1092C121.092 51.0674 121.371 50.0463 121.896 49.1619C122.422 48.2774 123.173 47.5649 124.066 47.105C125.055 46.6059 126.143 46.3581 127.241 46.3818C128.226 46.3675 129.204 46.5644 130.114 46.9604C130.93 47.3133 131.656 47.8641 132.23 48.5675C132.781 49.2531 133.132 50.0897 133.243 50.9782H130.812C130.661 50.1899 130.219 49.4962 129.58 49.0497C128.94 48.64 128.213 48.4034 127.464 48.3614C126.715 48.3193 125.967 48.473 125.289 48.8086C124.75 49.0965 124.305 49.5471 124.012 50.1023C123.714 50.7261 123.559 51.4139 123.559 52.1112C123.559 52.8086 123.714 53.4964 124.012 54.1202L124.031 54.1161ZM92.2392 49.7407C91.6595 49.4592 91.0256 49.3217 90.3869 49.3389C89.4833 49.3196 88.5971 49.6009 87.8558 50.1425C87.1017 50.714 86.5339 51.5151 86.2298 52.4367C86.4006 53.4255 86.9073 54.3161 87.6564 54.9438C88.4374 55.573 89.4022 55.8996 90.3869 55.8679C91.0258 55.8872 91.6602 55.7496 92.2392 55.4661C92.7409 55.2145 93.1629 54.817 93.4549 54.321C93.7488 53.7983 93.8976 53.1999 93.8844 52.5934C93.8977 51.9906 93.7488 51.3961 93.4549 50.8778C93.1614 50.3851 92.7396 49.9905 92.2392 49.7407Z" fill="white"/>
<path id="Vector_4" d="M111.706 55.1769L112.423 55.4501V54.2448L111.706 55.1769Z" fill="white"/>
<path id="Vector_5" d="M25.5602 37.3336V60.2352H21.7252V40.9055H9.71019C9.80734 42.0733 9.88404 43.1943 9.94029 44.2684C10.017 45.751 10.0553 47.1492 10.0553 48.451C10.1087 50.7937 9.87409 53.1338 9.35737 55.4138C8.8895 57.2018 8.16469 58.5236 7.18293 59.3674C6.0877 60.2512 4.72891 60.6996 3.34794 60.633C2.74979 60.6342 2.15324 60.5682 1.56851 60.4361C1.02198 60.3147 0.494131 60.1146 0 59.8415L0 56.4183C0.727327 56.7474 1.50889 56.9248 2.30099 56.9406C2.96936 56.9636 3.62832 56.7708 4.18871 56.3885C4.7491 56.0062 5.18386 55.4528 5.43418 54.8031C6.08613 53.3755 6.4121 51.0639 6.4121 47.8684C6.4121 46.4862 6.36352 44.9045 6.26637 43.1233C6.16922 41.3421 6.01326 39.4122 5.7985 37.3336H25.5602Z" fill="white"/>
<path id="Vector_6" d="M48.5279 42.9547H44.6239L44.1982 47.2015C44.1266 47.0703 44.0499 46.9363 43.9681 46.7997C43.1583 45.5014 42.0695 44.4199 40.7889 43.6417C39.5166 42.8812 38.0736 42.4901 36.6088 42.5087C35.1072 42.4785 33.6258 42.8741 32.3213 43.6538C31.0872 44.4094 30.078 45.5098 29.4067 46.8319C28.7179 48.3082 28.3599 49.9297 28.3599 51.5729C28.3599 53.2161 28.7179 54.8377 29.4067 56.314C30.0748 57.6416 31.0844 58.7468 32.3213 59.5041C33.6188 60.25 35.075 60.6411 36.5551 60.6411C38.0352 60.6411 39.4913 60.25 40.7889 59.5041C42.0697 58.7233 43.1543 57.6338 43.9528 56.326C44.0372 56.1934 44.1177 56.0568 44.1944 55.9242L44.6239 60.2072H48.5279L47.6536 51.5689L48.5279 42.9547ZM42.8023 54.6626C42.151 55.5154 41.3423 56.2218 40.4246 56.7398C39.5275 57.2391 38.5258 57.4959 37.51 57.4872C36.5491 57.5061 35.6018 57.2476 34.7718 56.7398C33.9737 56.2434 33.3231 55.5242 32.8927 54.6626C32.4412 53.7092 32.2063 52.6593 32.2063 51.595C32.2063 50.5307 32.4412 49.4808 32.8927 48.5274C33.3231 47.6658 33.9737 46.9466 34.7718 46.4502C35.6018 45.9425 36.5491 45.6839 37.51 45.7029C38.5258 45.6941 39.5275 45.9509 40.4246 46.4502C41.3423 46.9682 42.151 47.6747 42.8023 48.5274C43.5098 49.4476 44.0659 50.4851 44.4475 51.597C44.065 52.7073 43.509 53.7433 42.8023 54.6626Z" fill="white"/>
<path id="Vector_7" d="M67.791 52.2076C67.0922 51.7002 66.2967 51.3575 65.4593 51.2032C65.9815 51.0053 66.4697 50.7204 66.9051 50.3594C67.3426 49.9992 67.6931 49.5362 67.9283 49.0079C68.1635 48.4795 68.2767 47.9006 68.2589 47.3179C68.2879 46.7087 68.1807 46.1008 67.9456 45.5427C67.7106 44.9846 67.3543 44.4918 66.9051 44.1037C66 43.3296 64.7511 42.9425 63.1583 42.9425H51.2085L52.0522 51.5849L51.2085 60.2232H63.538C65.343 60.2232 66.7568 59.8013 67.7795 58.9576C68.2821 58.5447 68.6835 58.0122 68.9502 57.4043C69.217 56.7964 69.3416 56.1305 69.3135 55.4621C69.3384 54.8297 69.2122 54.2008 68.9463 53.6325C68.6805 53.0641 68.2833 52.5744 67.791 52.2076ZM61.8468 45.7028C62.7774 45.7028 63.4434 45.9117 63.8448 46.3295C64.0434 46.5407 64.1986 46.7922 64.3009 47.0686C64.4031 47.345 64.4502 47.6404 64.4392 47.9367C64.4491 48.2447 64.3929 48.5512 64.2748 48.8335C64.1566 49.1158 63.9795 49.3668 63.7566 49.5679C63.3015 49.9858 62.578 50.1947 61.586 50.1947H55.5459L55.0665 45.7068L61.8468 45.7028ZM64.8112 56.8603C64.3548 57.262 63.6147 57.487 62.5831 57.487H55.0703L55.5727 52.754H62.1267C63.3309 52.754 64.1912 52.979 64.7077 53.429C64.9507 53.6278 65.1465 53.8829 65.2796 54.1743C65.4127 54.4657 65.4794 54.7855 65.4747 55.1085C65.495 55.4338 65.446 55.7597 65.3312 56.0627C65.2165 56.3656 65.0389 56.6381 64.8112 56.8603Z" fill="white"/>
</g>
</g>
<defs>
<clipPath id="clip0_523_7821">
<rect width="144" height="64" fill="white"/>
</clipPath>
</defs>
</svg>
