<svg width="41" height="40" viewBox="0 0 41 40" fill="none" xmlns="http://www.w3.org/2000/svg">
<g id="basket-icon">
<path id="Vector" d="M38.5 16.9108V17.9465C38.5 18.8045 37.8098 19.5001 36.9583 19.5001H36.4444L34.767 31.3323C34.5501 32.863 33.2491 34 31.7147 34H8.28526C6.75085 34 5.44994 32.863 5.23289 31.3323L3.55556 19.5001H3.04167C2.19022 19.5001 1.5 18.8045 1.5 17.9465V16.9108C1.5 16.0528 2.19022 15.3573 3.04167 15.3573H7.36739L14.2265 5.85328C14.8943 4.92814 16.1798 4.72352 17.0979 5.39641C18.0161 6.06929 18.2191 7.36477 17.5513 8.28998L12.4508 15.3573H27.5492L22.4487 8.28991C21.7809 7.36477 21.984 6.06923 22.9021 5.39634C23.8201 4.72346 25.1058 4.92801 25.7735 5.85322L32.6326 15.3573H36.9583C37.8098 15.3573 38.5 16.0528 38.5 16.9108ZM21.5417 28.3036V21.0537C21.5417 20.1956 20.8514 19.5001 20 19.5001C19.1486 19.5001 18.4583 20.1956 18.4583 21.0537V28.3036C18.4583 29.1616 19.1486 29.8572 20 29.8572C20.8514 29.8572 21.5417 29.1616 21.5417 28.3036ZM28.7361 28.3036V21.0537C28.7361 20.1956 28.0459 19.5001 27.1944 19.5001C26.343 19.5001 25.6528 20.1956 25.6528 21.0537V28.3036C25.6528 29.1616 26.343 29.8572 27.1944 29.8572C28.0459 29.8572 28.7361 29.1616 28.7361 28.3036ZM14.3472 28.3036V21.0537C14.3472 20.1956 13.657 19.5001 12.8056 19.5001C11.9541 19.5001 11.2639 20.1956 11.2639 21.0537V28.3036C11.2639 29.1616 11.9541 29.8572 12.8056 29.8572C13.657 29.8572 14.3472 29.1616 14.3472 28.3036Z" fill="#2CA54E"/>
</g>
</svg>
