<svg width="40" height="40" viewBox="0 0 40 40" fill="none" xmlns="http://www.w3.org/2000/svg">
<g id="book-icon" clip-path="url(#clip0_523_6418)">
<path id="Vector" d="M11.1111 5.77783H31.1111V7.50005H11.1111V5.77783Z" fill="#2CA54E"/>
<path id="Vector_2" d="M32.2223 8.88883H10.9556C10.6721 8.88482 10.3923 8.82341 10.1331 8.70832C9.87394 8.59322 9.64076 8.42683 9.44763 8.21917C9.25451 8.01151 9.10545 7.76689 9.00943 7.50006C8.91342 7.23323 8.87244 6.94971 8.88898 6.66661C8.88759 6.10323 9.10025 5.56035 9.48392 5.1478C9.86759 4.73525 10.3936 4.48383 10.9556 4.44439H32.2223C32.517 4.44439 32.7996 4.32733 33.008 4.11895C33.2164 3.91058 33.3334 3.62796 33.3334 3.33328C33.3334 3.03859 33.2164 2.75598 33.008 2.5476C32.7996 2.33923 32.517 2.22217 32.2223 2.22217H10.9556C9.80407 2.2625 8.71317 2.74849 7.91303 3.57766C7.11289 4.40682 6.66605 5.51434 6.66675 6.66661C6.656 6.84793 6.656 7.02973 6.66675 7.21106C6.65605 7.29962 6.65605 7.38916 6.66675 7.47772V33.3333C6.66605 34.4856 7.11289 35.5931 7.91303 36.4222C8.71317 37.2514 9.80407 37.7374 10.9556 37.7777H32.2223C32.517 37.7777 32.7996 37.6607 33.008 37.4523C33.2164 37.2439 33.3334 36.9613 33.3334 36.6666V10.0777C33.3341 9.77543 33.2195 9.48425 33.0131 9.2634C32.8067 9.04254 32.5239 8.90861 32.2223 8.88883Z" fill="#2CA54E"/>
</g>
<defs>
<clipPath id="clip0_523_6418">
<rect width="40" height="40" fill="white"/>
</clipPath>
</defs>
</svg>
