<svg width="41" height="37" viewBox="0 0 41 37" fill="none" xmlns="http://www.w3.org/2000/svg">
<path d="M29.6908 16.6346L25.9325 13.2429C25.4542 12.8113 25.3175 12.21 25.5054 11.6704C26.1375 9.94375 26.4792 8.09375 26.4792 6.16667C26.4792 5.31875 27.2479 4.625 28.1875 4.625H34.1667C35.1063 4.625 35.875 5.31875 35.875 6.16667C35.875 20.6429 22.8746 32.375 6.83333 32.375C5.89375 32.375 5.125 31.6812 5.125 30.8333V25.4529C5.125 24.605 5.89375 23.9112 6.83333 23.9112C8.95167 23.9112 11.0188 23.6029 12.9321 23.0325C13.53 22.8475 14.2133 22.9862 14.6746 23.4025L18.4329 26.7942C23.2675 24.5587 27.2308 20.9975 29.6908 16.6346Z" fill="black"/>
</svg>
