<svg width="60" height="60" viewBox="0 0 60 60" fill="none" xmlns="http://www.w3.org/2000/svg">
<rect width="60" height="60" rx="10" fill="#2CA54E"/>
<path fill-rule="evenodd" clip-rule="evenodd" d="M14.111 18H9.18791C7.78132 18 7.5 18.5937 7.5 19.2505C7.5 20.4215 9.16822 26.2295 15.2714 33.9107C19.3393 39.1566 25.0711 42 30.2868 42C33.4164 42 33.8032 41.3684 33.8032 40.2808V36.3158C33.8032 35.0526 34.0986 34.8 35.0903 34.8C35.8217 34.8 37.0736 35.1284 39.9936 37.6573C43.3315 40.6547 43.8815 42 45.7593 42H50.6823C52.0889 42 52.7922 41.3684 52.3857 40.1217C51.9426 38.88 50.349 37.0775 48.2334 34.9415C47.0857 33.7238 45.364 32.4114 44.8436 31.7558C44.1121 30.9133 44.3231 30.5381 44.8436 29.7891C44.8436 29.7891 50.8413 22.2013 51.4686 19.6257C51.7809 18.6884 51.4686 18 49.9776 18H45.056C43.8041 18 43.2274 18.5937 42.9151 19.2505C42.9151 19.2505 40.4114 24.7301 36.8654 28.2897C35.7176 29.3204 35.1958 29.6488 34.5698 29.6488C34.2576 29.6488 33.8046 29.3204 33.8046 28.3844V19.6257C33.8046 18.5015 33.4403 18 32.3981 18H24.6618C23.8797 18 23.4099 18.5217 23.4099 19.0168C23.4099 20.0817 25.1822 20.328 25.3651 23.3242V29.8358C25.3651 31.2632 25.0782 31.5221 24.4508 31.5221C22.7826 31.5221 18.7232 26.0173 16.3151 19.7192C15.8425 18.4926 15.3685 18 14.111 18Z" fill="white"/>
</svg>
