<svg width="30" height="30" viewBox="0 0 30 30" fill="none" xmlns="http://www.w3.org/2000/svg">
<path id="&#208;&#186;&#209;&#128;&#208;&#181;&#209;&#129;&#209;&#130; / norm" fill-rule="evenodd" clip-rule="evenodd" d="M29.4313 3.31157C29.6115 3.13166 29.7544 2.91802 29.852 2.68287C29.9495 2.44772 29.9998 2.19565 30 1.94106C30.0002 1.68647 29.9502 1.43434 29.8529 1.19907C29.7556 0.963801 29.6129 0.749994 29.433 0.56986C29.2531 0.389726 29.0395 0.246793 28.8043 0.149221C28.5692 0.0516485 28.3171 0.00134812 28.0625 0.00119164C27.8079 0.00103516 27.5558 0.0510256 27.3205 0.148309C27.0852 0.245592 26.8714 0.388262 26.6913 0.568175L14.9998 12.2596L3.31159 0.568175C2.94779 0.204378 2.45438 -3.83322e-09 1.93989 0C1.4254 3.83322e-09 0.931979 0.204378 0.568179 0.568175C0.20438 0.931971 3.83325e-09 1.42539 0 1.93987C-3.83325e-09 2.45436 0.20438 2.94777 0.568179 3.31157L12.2597 14.9996L0.568179 26.6877C0.388044 26.8678 0.245153 27.0817 0.147665 27.317C0.0501764 27.5524 0 27.8046 0 28.0594C0 28.3141 0.0501764 28.5664 0.147665 28.8017C0.245153 29.0371 0.388044 29.251 0.568179 29.4311C0.931979 29.7949 1.4254 29.9993 1.93989 29.9993C2.19464 29.9993 2.44689 29.9491 2.68225 29.8516C2.91761 29.7541 3.13146 29.6112 3.31159 29.4311L14.9998 17.7397L26.6913 29.4311C27.0551 29.7944 27.5483 29.9984 28.0625 29.9981C28.5767 29.9978 29.0697 29.7932 29.433 29.4294C29.7964 29.0656 30.0003 28.5724 30 28.0582C29.9997 27.544 29.7951 27.051 29.4313 26.6877L17.7398 14.9996L29.4313 3.31157Z" fill="#303030"/>
</svg>
