<svg width="60" height="61" viewBox="0 0 60 61" fill="none" xmlns="http://www.w3.org/2000/svg">
<g id="insta">
<rect y="0.5" width="60" height="60" rx="10" fill="#DEFFDD"/>
<path id="insta_2" d="M22.5453 48.3741C20.63 48.2838 19.3221 47.9781 18.1788 47.5288C16.9954 47.0677 15.9925 46.4488 14.9945 45.4473C13.9966 44.4458 13.3821 43.4421 12.9242 42.257C12.481 41.1111 12.1808 39.8021 12.0962 37.8858C12.0115 35.9695 11.9928 35.3536 12.0022 30.4655C12.0115 25.5774 12.0331 24.9647 12.126 23.0444C12.2175 21.1296 12.522 19.8221 12.9713 18.6783C13.4332 17.495 14.0513 16.4924 15.0532 15.4941C16.0551 14.4958 17.0581 13.8828 18.2461 13.4241C19.3909 12.9817 20.7002 12.68 22.6162 12.5961C24.5321 12.5122 25.1488 12.4928 30.0355 12.5021C34.9222 12.5115 35.5374 12.5331 37.4573 12.6242C39.3772 12.7153 40.6779 13.022 41.822 13.4691C43.0053 13.9321 44.0087 14.5491 45.0062 15.5514C46.0038 16.5536 46.618 17.558 47.0755 18.7438C47.5191 19.8887 47.8204 21.198 47.9035 23.1125C47.9874 25.0338 48.0072 25.6472 47.9979 30.5346C47.9885 35.422 47.9666 36.0347 47.8755 37.9542C47.7844 39.8738 47.4795 41.1773 47.0305 42.3218C46.5679 43.5051 45.9505 44.507 44.949 45.506C43.9475 46.505 42.9423 47.1188 41.7568 47.5753C40.6113 48.0184 39.3027 48.3205 37.3868 48.4033C35.4708 48.4861 34.8541 48.5073 29.9657 48.498C25.0772 48.4886 24.4652 48.4677 22.5453 48.3741ZM22.7555 15.8343C21.0005 15.9106 20.0476 16.2022 19.4125 16.4463C18.5715 16.7703 17.9725 17.162 17.3396 17.7888C16.7067 18.4155 16.3179 19.0167 15.9896 19.8559C15.743 20.4909 15.446 21.4428 15.3639 23.1978C15.2746 25.0946 15.2559 25.6642 15.2455 30.4698C15.235 35.2755 15.2534 35.8443 15.3365 37.7418C15.4114 39.4954 15.7048 40.4494 15.9485 41.0841C16.2726 41.9261 16.6628 42.5241 17.291 43.1566C17.9192 43.7891 18.5186 44.1787 19.3585 44.507C19.9928 44.7547 20.9447 45.0491 22.699 45.1327C24.5973 45.2227 25.1661 45.2407 29.9711 45.2511C34.776 45.2615 35.3463 45.2435 37.2453 45.16C38.9989 45.0837 39.9532 44.7932 40.5872 44.548C41.4285 44.224 42.0272 43.8349 42.6597 43.2056C43.2923 42.5763 43.6821 41.979 44.0105 41.1374C44.2585 40.5048 44.553 39.5534 44.6358 37.798C44.7262 35.8997 44.7467 35.3305 44.7553 30.526C44.764 25.7214 44.747 25.1508 44.6639 23.2539C44.5872 21.4989 44.2963 20.5457 44.0519 19.9099C43.7279 19.0693 43.3373 18.4699 42.7087 17.8377C42.0801 17.2056 41.4814 16.816 40.6412 16.4877C40.0076 16.2404 39.0547 15.9452 37.3018 15.8617C35.4035 15.7724 34.8347 15.7537 30.0279 15.7432C25.2212 15.7328 24.6542 15.7522 22.7559 15.8343M37.4296 40.1204C37.4303 39.6931 37.5577 39.2757 37.7957 38.9209C38.0337 38.566 38.3715 38.2897 38.7665 38.1269C39.1615 37.9641 39.5959 37.9221 40.0148 38.0062C40.4337 38.0903 40.8182 38.2968 41.1198 38.5994C41.4213 38.9021 41.6264 39.2874 41.7089 39.7065C41.7915 40.1257 41.7479 40.56 41.5836 40.9544C41.4194 41.3488 41.1419 41.6856 40.7862 41.9223C40.4304 42.159 40.0125 42.2848 39.5853 42.284C39.0126 42.2828 38.4637 42.0543 38.0595 41.6485C37.6552 41.2428 37.4286 40.6931 37.4296 40.1204ZM20.7578 30.482C20.7679 25.3772 24.9137 21.2484 30.0175 21.2581C35.1213 21.2678 39.253 25.4132 39.2433 30.518C39.2336 35.6229 35.0867 39.7528 29.9822 39.7427C24.8777 39.7326 20.7481 35.5861 20.7578 30.482ZM24 30.4885C23.9977 31.6752 24.3473 32.836 25.0046 33.824C25.662 34.812 26.5976 35.5829 27.6931 36.0393C28.7886 36.4956 29.9947 36.6168 31.1591 36.3876C32.3235 36.1583 33.3938 35.589 34.2346 34.7515C35.0754 33.9141 35.6489 32.8461 35.8828 31.6826C36.1166 30.5192 36.0001 29.3125 35.5482 28.2152C35.0962 27.1179 34.329 26.1793 33.3436 25.5181C32.3582 24.8568 31.1988 24.5026 30.0121 24.5003C29.2241 24.4986 28.4435 24.6522 27.7149 24.9523C26.9863 25.2523 26.3239 25.693 25.7656 26.2491C25.2073 26.8051 24.7641 27.4657 24.4611 28.1932C24.1582 28.9206 24.0015 29.7006 24 30.4885Z" fill="#2CA54E"/>
</g>
</svg>
