<svg width="23" height="22" viewBox="0 0 23 22" fill="none" xmlns="http://www.w3.org/2000/svg">
<path d="M21.5 11C21.5 11.3183 21.3736 11.6235 21.1485 11.8485C20.9235 12.0736 20.6183 12.2 20.3 12.2H12.7V19.8C12.7 20.1183 12.5736 20.4235 12.3485 20.6485C12.1235 20.8736 11.8183 21 11.5 21C11.1817 21 10.8765 20.8736 10.6515 20.6485C10.4264 20.4235 10.3 20.1183 10.3 19.8V12.2H2.7C2.38174 12.2 2.07652 12.0736 1.85147 11.8485C1.62643 11.6235 1.5 11.3183 1.5 11C1.5 10.6817 1.62643 10.3765 1.85147 10.1515C2.07652 9.92643 2.38174 9.8 2.7 9.8H10.3V2.2C10.3 1.88174 10.4264 1.57652 10.6515 1.35147C10.8765 1.12643 11.1817 1 11.5 1C11.8183 1 12.1235 1.12643 12.3485 1.35147C12.5736 1.57652 12.7 1.88174 12.7 2.2V9.8H20.3C20.6183 9.8 20.9235 9.92643 21.1485 10.1515C21.3736 10.3765 21.5 10.6817 21.5 11Z" fill="#303030" stroke="#303030" stroke-width="1.2"/>
</svg>
