<svg width="80" height="16" viewBox="0 0 80 16" fill="none" xmlns="http://www.w3.org/2000/svg">
<g id="rating">
<path id="Star 1" d="M7.52443 1.46353C7.6741 1.00288 8.32581 1.00288 8.47549 1.46353L9.6838 5.18237C9.75074 5.38838 9.94272 5.52786 10.1593 5.52786H14.0695C14.5539 5.52786 14.7553 6.14767 14.3634 6.43237L11.2 8.73075C11.0248 8.85807 10.9514 9.08375 11.0184 9.28976L12.2267 13.0086C12.3764 13.4693 11.8491 13.8523 11.4573 13.5676L8.29385 11.2693C8.11861 11.1419 7.88131 11.1419 7.70606 11.2693L4.54265 13.5676C4.15079 13.8523 3.62355 13.4693 3.77323 13.0086L4.98155 9.28976C5.04848 9.08375 4.97515 8.85807 4.79991 8.73075L1.63649 6.43237C1.24463 6.14767 1.44602 5.52786 1.93038 5.52786H5.84058C6.0572 5.52786 6.24917 5.38838 6.31611 5.18237L7.52443 1.46353Z" fill="#303030"/>
<path id="Star 2" d="M23.5247 1.46353C23.6743 1.00288 24.3261 1.00288 24.4757 1.46353L25.684 5.18237C25.751 5.38838 25.943 5.52786 26.1596 5.52786H30.0698C30.5541 5.52786 30.7555 6.14767 30.3637 6.43237L27.2002 8.73075C27.025 8.85807 26.9517 9.08375 27.0186 9.28976L28.2269 13.0086C28.3766 13.4693 27.8494 13.8523 27.4575 13.5676L24.2941 11.2693C24.1189 11.1419 23.8816 11.1419 23.7063 11.2693L20.5429 13.5676C20.151 13.8523 19.6238 13.4693 19.7735 13.0086L20.9818 9.28976C21.0487 9.08375 20.9754 8.85807 20.8002 8.73075L17.6367 6.43237C17.2449 6.14767 17.4463 5.52786 17.9306 5.52786H21.8408C22.0574 5.52786 22.2494 5.38838 22.3164 5.18237L23.5247 1.46353Z" fill="#303030"/>
<path id="Star 3" d="M39.5235 1.46353C39.6731 1.00288 40.3248 1.00288 40.4745 1.46353L41.6828 5.18237C41.7498 5.38838 41.9417 5.52786 42.1584 5.52786H46.0686C46.5529 5.52786 46.7543 6.14767 46.3625 6.43237L43.199 8.73075C43.0238 8.85807 42.9505 9.08375 43.0174 9.28976L44.2257 13.0086C44.3754 13.4693 43.8481 13.8523 43.4563 13.5676L40.2929 11.2693C40.1176 11.1419 39.8803 11.1419 39.7051 11.2693L36.5417 13.5676C36.1498 13.8523 35.6226 13.4693 35.7723 13.0086L36.9806 9.28976C37.0475 9.08375 36.9742 8.85807 36.7989 8.73075L33.6355 6.43237C33.2437 6.14767 33.445 5.52786 33.9294 5.52786H37.8396C38.0562 5.52786 38.2482 5.38838 38.3151 5.18237L39.5235 1.46353Z" fill="#303030"/>
<path id="Star 4" d="M55.5244 1.46353C55.6741 1.00288 56.3258 1.00288 56.4755 1.46353L57.6838 5.18237C57.7507 5.38838 57.9427 5.52786 58.1593 5.52786H62.0695C62.5539 5.52786 62.7553 6.14767 62.3634 6.43237L59.2 8.73075C59.0248 8.85807 58.9514 9.08375 59.0184 9.28976L60.2267 13.0086C60.3764 13.4693 59.8491 13.8523 59.4573 13.5676L56.2939 11.2693C56.1186 11.1419 55.8813 11.1419 55.7061 11.2693L52.5426 13.5676C52.1508 13.8523 51.6236 13.4693 51.7732 13.0086L52.9815 9.28976C53.0485 9.08375 52.9752 8.85807 52.7999 8.73075L49.6365 6.43237C49.2446 6.14767 49.446 5.52786 49.9304 5.52786H53.8406C54.0572 5.52786 54.2492 5.38838 54.3161 5.18237L55.5244 1.46353Z" fill="#303030"/>
<path id="Star 5" d="M71.5242 1.46353C71.6739 1.00288 72.3256 1.00288 72.4752 1.46353L73.6836 5.18237C73.7505 5.38838 73.9425 5.52786 74.1591 5.52786H78.0693C78.5536 5.52786 78.755 6.14767 78.3632 6.43237L75.1998 8.73075C75.0245 8.85807 74.9512 9.08375 75.0181 9.28976L76.2264 13.0086C76.3761 13.4693 75.8489 13.8523 75.457 13.5676L72.2936 11.2693C72.1184 11.1419 71.8811 11.1419 71.7058 11.2693L68.5424 13.5676C68.1505 13.8523 67.6233 13.4693 67.773 13.0086L68.9813 9.28976C69.0482 9.08375 68.9749 8.85807 68.7997 8.73075L65.6362 6.43237C65.2444 6.14767 65.4458 5.52786 65.9301 5.52786H69.8403C70.057 5.52786 70.2489 5.38838 70.3159 5.18237L71.5242 1.46353Z" fill="#303030"/>
</g>
</svg>
