<svg width="60" height="60" viewBox="0 0 60 60" fill="none" xmlns="http://www.w3.org/2000/svg">
<rect width="60" height="60" rx="10" fill="#2CA54E"/>
<path d="M22.5453 47.8741C20.63 47.7838 19.3221 47.4781 18.1788 47.0288C16.9954 46.5677 15.9925 45.9488 14.9945 44.9473C13.9966 43.9458 13.3821 42.9421 12.9242 41.757C12.481 40.6111 12.1808 39.3021 12.0962 37.3858C12.0115 35.4695 11.9928 34.8536 12.0022 29.9655C12.0115 25.0774 12.0331 24.4647 12.126 22.5444C12.2175 20.6296 12.522 19.3221 12.9713 18.1783C13.4332 16.995 14.0513 15.9924 15.0532 14.9941C16.0551 13.9958 17.0581 13.3828 18.2461 12.9241C19.3909 12.4817 20.7002 12.18 22.6162 12.0961C24.5321 12.0122 25.1488 11.9928 30.0355 12.0021C34.9222 12.0115 35.5374 12.0331 37.4573 12.1242C39.3772 12.2153 40.6779 12.522 41.822 12.9691C43.0053 13.4321 44.0087 14.0491 45.0062 15.0514C46.0038 16.0536 46.618 17.058 47.0755 18.2438C47.5191 19.3887 47.8204 20.698 47.9035 22.6125C47.9874 24.5338 48.0072 25.1472 47.9979 30.0346C47.9885 34.922 47.9666 35.5347 47.8755 37.4542C47.7844 39.3738 47.4795 40.6773 47.0305 41.8218C46.5679 43.0051 45.9505 44.007 44.949 45.006C43.9475 46.005 42.9423 46.6188 41.7568 47.0753C40.6113 47.5184 39.3027 47.8205 37.3868 47.9033C35.4708 47.9861 34.8541 48.0073 29.9657 47.998C25.0772 47.9886 24.4652 47.9677 22.5453 47.8741ZM22.7555 15.3343C21.0005 15.4106 20.0476 15.7022 19.4125 15.9463C18.5715 16.2703 17.9725 16.662 17.3396 17.2888C16.7067 17.9155 16.3179 18.5167 15.9896 19.3559C15.743 19.9909 15.446 20.9428 15.3639 22.6978C15.2746 24.5946 15.2559 25.1642 15.2455 29.9698C15.235 34.7755 15.2534 35.3443 15.3365 37.2418C15.4114 38.9954 15.7048 39.9494 15.9485 40.5841C16.2726 41.4261 16.6628 42.0241 17.291 42.6566C17.9192 43.2891 18.5186 43.6787 19.3585 44.007C19.9928 44.2547 20.9447 44.5491 22.699 44.6327C24.5973 44.7227 25.1661 44.7407 29.9711 44.7511C34.776 44.7615 35.3463 44.7435 37.2453 44.66C38.9989 44.5837 39.9532 44.2932 40.5872 44.048C41.4285 43.724 42.0272 43.3349 42.6597 42.7056C43.2923 42.0763 43.6821 41.479 44.0105 40.6374C44.2585 40.0048 44.553 39.0534 44.6358 37.298C44.7262 35.3997 44.7467 34.8305 44.7553 30.026C44.764 25.2214 44.747 24.6508 44.6639 22.7539C44.5872 20.9989 44.2963 20.0457 44.0519 19.4099C43.7279 18.5693 43.3373 17.9699 42.7087 17.3377C42.0801 16.7056 41.4814 16.316 40.6412 15.9877C40.0076 15.7404 39.0547 15.4452 37.3018 15.3617C35.4035 15.2724 34.8347 15.2537 30.0279 15.2432C25.2212 15.2328 24.6542 15.2522 22.7559 15.3343M37.4296 39.6204C37.4303 39.1931 37.5577 38.7757 37.7957 38.4209C38.0337 38.066 38.3715 37.7897 38.7665 37.6269C39.1615 37.4641 39.5959 37.4221 40.0148 37.5062C40.4337 37.5903 40.8182 37.7968 41.1198 38.0994C41.4213 38.4021 41.6264 38.7874 41.7089 39.2065C41.7915 39.6257 41.7479 40.06 41.5836 40.4544C41.4194 40.8488 41.1419 41.1856 40.7862 41.4223C40.4304 41.659 40.0125 41.7848 39.5853 41.784C39.0126 41.7828 38.4637 41.5543 38.0595 41.1485C37.6552 40.7428 37.4286 40.1931 37.4296 39.6204ZM20.7578 29.982C20.7679 24.8772 24.9137 20.7484 30.0175 20.7581C35.1213 20.7678 39.253 24.9132 39.2433 30.018C39.2336 35.1229 35.0867 39.2528 29.9822 39.2427C24.8777 39.2326 20.7481 35.0861 20.7578 29.982ZM24 29.9885C23.9977 31.1752 24.3473 32.336 25.0046 33.324C25.662 34.312 26.5976 35.0829 27.6931 35.5393C28.7886 35.9956 29.9947 36.1168 31.1591 35.8876C32.3235 35.6583 33.3938 35.089 34.2346 34.2515C35.0754 33.4141 35.6489 32.3461 35.8828 31.1826C36.1166 30.0192 36.0001 28.8125 35.5482 27.7152C35.0962 26.6179 34.329 25.6793 33.3436 25.0181C32.3582 24.3568 31.1988 24.0026 30.0121 24.0003C29.2241 23.9986 28.4435 24.1522 27.7149 24.4523C26.9863 24.7523 26.3239 25.193 25.7656 25.7491C25.2073 26.3051 24.7641 26.9657 24.4611 27.6932C24.1582 28.4206 24.0015 29.2006 24 29.9885Z" fill="white"/>
</svg>
