<svg width="60" height="61" viewBox="0 0 60 61" fill="none" xmlns="http://www.w3.org/2000/svg">
<g id="tiktok">
<rect y="0.5" width="60" height="60" rx="10" fill="#DEFFDD"/>
<g id="tiktok_2">
<path id="Vector" d="M36.7869 25.0337C39.1016 26.6195 41.9373 27.5525 44.9999 27.5525V21.9043C44.4203 21.9044 43.8422 21.8465 43.2751 21.7314V26.1773C40.2127 26.1773 37.3774 25.2442 35.0621 23.6586V35.1849C35.0621 40.9509 30.1848 45.6249 24.1688 45.6249C21.924 45.6249 19.8377 44.9745 18.1045 43.8591C20.0826 45.7975 22.8412 47 25.8932 47C31.9096 47 36.7871 42.326 36.7871 36.5597V25.0337H36.7869ZM38.9146 19.3353C37.7316 18.0967 36.9549 16.4961 36.7869 14.7265V14H35.1524C35.5638 16.2492 36.9671 18.1707 38.9146 19.3353ZM21.9096 39.4344C21.2487 38.6039 20.8915 37.5879 20.8931 36.5432C20.8931 33.9061 23.124 31.7678 25.8762 31.7678C26.3891 31.7677 26.899 31.8429 27.3878 31.9916V26.2172C26.8166 26.1421 26.24 26.1103 25.6637 26.122V30.6165C25.1746 30.4679 24.6645 30.3923 24.1514 30.3928C21.3992 30.3928 19.1685 32.5308 19.1685 35.1684C19.1685 37.0333 20.2835 38.6479 21.9096 39.4344Z" fill="#2CA54E"/>
<path id="Vector_2" d="M35.0623 23.6584C37.3776 25.2441 40.2129 26.1772 43.2753 26.1772V21.7312C41.5659 21.3823 40.0526 20.5261 38.9148 19.3353C36.9672 18.1706 35.564 16.249 35.1526 14H30.8593V36.5595C30.8495 39.1895 28.6225 41.319 25.8762 41.319C24.2578 41.319 22.8201 40.5797 21.9095 39.4344C20.2835 38.6479 19.1685 37.0332 19.1685 35.1685C19.1685 32.5312 21.3992 30.3929 24.1514 30.3929C24.6787 30.3929 25.187 30.4716 25.6637 30.6166V26.1221C19.7534 26.2391 15 30.8674 15 36.5596C15 39.4011 16.1837 41.9771 18.1048 43.8592C19.838 44.9745 21.9244 45.625 24.1691 45.625C30.1853 45.625 35.0624 40.9508 35.0624 35.1849V23.6584H35.0623Z" fill="#2CA54E"/>
</g>
</g>
</svg>
